<?xml version="1.0" standalone="no"?>
<!DOCTYPE svg PUBLIC "-//W3C//DTD SVG 1.1//EN" "http://www.w3.org/Graphics/SVG/1.1/DTD/svg11.dtd" >
<svg xmlns="http://www.w3.org/2000/svg" xmlns:xlink="http://www.w3.org/1999/xlink" version="1.1">
<metadata>
Created by FontForge 20170731 at Thu Jan  3 18:23:38 2002
 By Aleksey,,,
\251 Hans Reichel, 1995. Published by FontShop International FontFont release 16. Update V1.1 with hand edited bitmaps.
</metadata>
<defs>
<font id="DaxCondensed-Light" horiz-adv-x="446" >
  <font-face 
    font-family="DaxCondensed-Light"
    font-weight="5"
    font-stretch="normal"
    units-per-em="1000"
    panose-1="0 0 0 0 0 0 0 0 0 0"
    ascent="800"
    descent="-200"
    x-height="539"
    cap-height="688"
    bbox="-117 -227 912 889"
    underline-thickness="50"
    underline-position="-175"
    unicode-range="U+0020-F002"
  />
<missing-glyph horiz-adv-x="785" 
d="M49 0v785h687v-785h-687zM687 49v687h-589v-687h589z" />
    <glyph glyph-name=".notdef" horiz-adv-x="785" 
d="M49 0v785h687v-785h-687zM687 49v687h-589v-687h589z" />
    <glyph glyph-name=".null" horiz-adv-x="0" 
 />
    <glyph glyph-name="nonmarkingreturn" horiz-adv-x="276" 
 />
    <glyph glyph-name="space" unicode=" " horiz-adv-x="276" 
 />
    <glyph glyph-name="exclam" unicode="!" horiz-adv-x="267" 
d="M167 215h-42l-19 473h80zM146 -7q-19 0 -32.5 13.5t-13.5 33.5t13.5 33.5t32.5 13.5q20 0 33 -13t13 -34q0 -19 -13 -33t-33 -14z" />
    <glyph glyph-name="quotedbl" unicode="&#x22;" horiz-adv-x="343" 
d="M260 445h-27l-20 230q11 21 34 21t34 -21zM130 445h-27l-20 230q11 21 34 21t34 -21z" />
    <glyph glyph-name="numbersign" unicode="#" 
d="M324 426l-23 -147h98v-38h-104l-37 -241h-38l37 241h-115l-38 -241h-37l37 241h-97v38h103l23 147h-97v38h103l35 224h38l-35 -224h115l35 224h38l-35 -224h98v-38h-104zM171 426l-23 -147h115l23 147h-115z" />
    <glyph glyph-name="dollar" unicode="$" 
d="M222 -9l10 -112h-55l10 111q-39 0 -69.5 10.5t-53.5 29.5l19 53q20 -16 46 -26t64 -10q49 0 81 30t32 83t-25 88t-87.5 83t-92.5 94.5t-30 102.5q0 69 39 114.5t98 53.5l-8 108h50l-9 -106q36 0 61.5 -10.5t44.5 -29.5l-17 -46q-16 13 -41 23.5t-56 10.5
q-47 0 -73.5 -28.5t-26.5 -79.5q0 -48 25 -83.5t87.5 -83.5t94.5 -93.5t32 -105.5q0 -76 -40.5 -124.5t-109.5 -56.5z" />
    <glyph glyph-name="percent" unicode="%" horiz-adv-x="687" 
d="M525 -11q-62 0 -85.5 69t-23.5 168q0 130 30 182t79 52q62 0 85.5 -68t23.5 -166q0 -99 -23.5 -168t-85.5 -69zM262 -5l-35 10l196 688l35 -10zM162 228q-62 0 -85.5 69t-23.5 167q0 130 30 182.5t79 52.5q62 0 85.5 -68t23.5 -167q0 -98 -23.5 -167t-85.5 -69zM525 430
q-48 0 -57.5 -75t-9.5 -129q0 -86 13 -144t54 -58q48 0 57.5 75t9.5 127q0 86 -13 145t-54 59zM162 669q-40 0 -53.5 -60.5t-13.5 -144.5q0 -85 13 -143t54 -58q48 0 57.5 74t9.5 127q0 87 -13 146t-54 59z" />
    <glyph glyph-name="ampersand" unicode="&#x26;" horiz-adv-x="512" 
d="M406 417v-387q-42 -40 -144 -40q-94 0 -152 53t-58 145q0 72 42 123t105 78q-50 19 -80 57.5t-30 97.5q0 65 40 109.5t114 44.5q39 0 67.5 -10.5t48.5 -29.5l-19 -40q-13 11 -38.5 22t-50.5 11q-46 0 -73.5 -28t-27.5 -80q0 -53 33 -86t81 -33q54 0 112 23t109 57l20 -46
q-15 -9 -44.5 -21.5t-54.5 -19.5zM348 399q-129 -36 -180.5 -80.5t-51.5 -126.5q0 -68 38.5 -112.5t108.5 -44.5q56 0 85 15v349z" />
    <glyph glyph-name="quotesingle" unicode="'" horiz-adv-x="224" 
d="M138 445h-32l-23 230q14 21 39 21q26 0 40 -21z" />
    <glyph glyph-name="parenleft" unicode="(" horiz-adv-x="301" 
d="M235 -227q-90 140 -133 264t-43 249q0 236 176 512l37 -23q-69 -112 -108 -236t-39 -253t39 -252.5t108 -237.5z" />
    <glyph glyph-name="parenright" unicode=")" horiz-adv-x="301" 
d="M66 -227l-37 23q70 114 108 236.5t38 253.5q0 130 -38.5 253t-107.5 236l37 23q89 -140 132.5 -264t43.5 -248q0 -126 -42.5 -248t-133.5 -265z" />
    <glyph glyph-name="asterisk" unicode="*" horiz-adv-x="374" 
d="M298 651q-15 0 -25.5 10.5t-10.5 24.5q0 15 10.5 25.5t25.5 10.5t25.5 -10.5t10.5 -25.5t-10 -25t-26 -10zM198 723q-15 0 -25 10t-10 26q0 14 10 24.5t25 10.5t25.5 -10.5t10.5 -24.5q0 -15 -10.5 -25.5t-25.5 -10.5zM198 626q-11 0 -19.5 7.5t-8.5 19.5t8 20t20 8
t20 -8t8 -20q0 -11 -8 -19t-20 -8zM260 533q-15 0 -25.5 10.5t-10.5 25.5t10 25t26 10q14 0 24.5 -9.5t10.5 -25.5q0 -15 -10.5 -25.5t-24.5 -10.5zM99 651q-15 0 -25.5 10.5t-10.5 24.5q0 15 10.5 25.5t25.5 10.5t25 -10t10 -26q0 -15 -10 -25t-25 -10zM136 533
q-15 0 -25 10t-10 26q0 15 10 25t25 10q14 0 25 -10t11 -25t-10.5 -25.5t-25.5 -10.5z" />
    <glyph glyph-name="plus" unicode="+" 
d="M246 312v-181h-47v181h-138v47h138v180h47v-180h139v-47h-139z" />
    <glyph glyph-name="comma" unicode="," horiz-adv-x="218" 
d="M40 -172h-33l74 236q13 26 48 26q27 0 30 -25z" />
    <glyph glyph-name="hyphen" unicode="-" horiz-adv-x="293" 
d="M53 304v60h187v-60h-187z" />
    <glyph glyph-name="period" unicode="." horiz-adv-x="211" 
d="M106 -4q-20 0 -33.5 13.5t-13.5 32.5q0 20 13.5 33.5t32.5 13.5q20 0 33.5 -13.5t13.5 -32.5q0 -20 -13.5 -33.5t-32.5 -13.5z" />
    <glyph glyph-name="slash" unicode="/" horiz-adv-x="478" 
d="M60 -223l-42 17l400 1000l42 -17z" />
    <glyph glyph-name="zero" unicode="0" 
d="M223 -10q-96 0 -133.5 99t-37.5 255q0 154 37.5 254t133.5 100t133.5 -99t37.5 -255q0 -154 -37.5 -254t-133.5 -100zM223 651q-65 0 -87 -77.5t-22 -229.5q0 -150 22 -226t87 -76t87 75.5t22 226.5q0 152 -22 229.5t-87 77.5z" />
    <glyph glyph-name="one" unicode="1" 
d="M229 0v583q-27 -13 -71.5 -22.5t-82.5 -13.5l-5 33q61 8 111 38.5t69 69.5h41v-688h-62z" />
    <glyph glyph-name="two" unicode="2" 
d="M38 0l216 352q32 52 43.5 87t11.5 74q0 57 -31.5 93.5t-91.5 36.5q-27 0 -49.5 -6t-47.5 -23l-22 44q24 17 60 28.5t78 11.5q73 0 121.5 -46.5t48.5 -133.5q0 -40 -16 -83.5t-56 -106.5l-172 -272h246v-56h-339z" />
    <glyph glyph-name="three" unicode="3" 
d="M189 -10q-96 0 -146 40l21 47q17 -14 47 -23.5t69 -9.5q59 0 95.5 43.5t36.5 110.5q0 74 -46.5 118.5t-127.5 44.5v40q68 0 111.5 37.5t43.5 96.5q0 46 -29 78t-77 32q-31 0 -54.5 -7.5t-40.5 -20.5l-23 40q26 22 55.5 31.5t76.5 9.5q71 0 112.5 -43.5t41.5 -111.5
q0 -63 -29 -99.5t-68 -54.5q46 -18 81.5 -65t35.5 -126q0 -85 -53.5 -146.5t-132.5 -61.5z" />
    <glyph glyph-name="four" unicode="4" 
d="M346 162v-162h-57v162h-237v52l240 474h54v-478h49v-48h-49zM256 521l-155 -311h187v312l2 69q-6 -13 -16.5 -34.5t-17.5 -35.5z" />
    <glyph glyph-name="five" unicode="5" 
d="M191 -10q-93 0 -143 40l20 47q20 -15 49.5 -24.5t68.5 -9.5q53 0 91.5 46.5t38.5 107.5q0 76 -37.5 122t-119.5 46q-34 0 -78 -9l21 332h265v-56h-218l-14 -227q23 4 48 4q92 0 143.5 -56.5t51.5 -153.5q0 -86 -53.5 -147.5t-133.5 -61.5z" />
    <glyph glyph-name="six" unicode="6" 
d="M226 -10q-84 0 -129.5 69.5t-45.5 189.5q0 146 53 242.5t115.5 142t113.5 61.5l17 -46q-70 -28 -130 -87t-91 -166q13 6 36.5 10.5t48.5 4.5q86 0 134 -56.5t48 -153.5q0 -85 -44 -148t-126 -63zM202 366q-26 0 -45 -3.5t-37 -10.5q-5 -26 -6 -46.5t-1 -56.5
q0 -100 28.5 -154.5t85.5 -54.5q53 0 80 47t27 115q0 77 -33 120.5t-99 43.5z" />
    <glyph glyph-name="seven" unicode="7" 
d="M324 464q-48 -126 -90 -259.5t-59 -204.5h-78l235 632h-275v56h352z" />
    <glyph glyph-name="eight" unicode="8" 
d="M222 -10q-72 0 -121 48t-49 124q0 62 29 104.5t98 98.5q-60 51 -84 90t-24 92q0 66 43.5 108.5t107.5 42.5q63 0 108 -43t45 -108q0 -50 -27 -89t-90 -89q73 -59 104.5 -103t31.5 -106q0 -75 -49.5 -122.5t-122.5 -47.5zM222 652q-41 0 -67.5 -29.5t-26.5 -75.5
q0 -69 92 -148q54 43 76 75t22 74q0 44 -28 74t-68 30zM217 334q-108 -85 -108 -172q0 -53 31.5 -87.5t81.5 -34.5q49 0 80.5 33.5t31.5 86.5q0 49 -27.5 86.5t-89.5 87.5z" />
    <glyph glyph-name="nine" unicode="9" 
d="M113 -8l-16 46q67 27 129.5 89.5t91.5 163.5q-14 -6 -37.5 -10.5t-48.5 -4.5q-83 0 -132 57t-49 153q0 85 43.5 148.5t125.5 63.5q85 0 130.5 -69t45.5 -191q0 -146 -53.5 -243t-115.5 -142t-114 -61zM219 648q-54 0 -80 -46.5t-26 -116.5q0 -77 33 -120.5t99 -43.5
q26 0 45 3.5t37 10.5q7 48 7 103q0 98 -29.5 154t-85.5 56z" />
    <glyph glyph-name="colon" unicode=":" horiz-adv-x="210" 
d="M105 291q-19 0 -32.5 13.5t-13.5 33.5t13.5 33.5t32.5 13.5q20 0 33 -13t13 -34q0 -19 -13 -33t-33 -14zM105 -7q-19 0 -32.5 13.5t-13.5 33.5t13 34t33 14t33 -14t13 -34q0 -19 -13 -33t-33 -14z" />
    <glyph glyph-name="semicolon" unicode=";" horiz-adv-x="218" 
d="M113 291q-20 0 -33 13t-13 34q0 20 13 34t33 14q18 0 32 -14t14 -34t-13.5 -33.5t-32.5 -13.5zM40 -172h-33l74 236q13 26 48 26q27 0 30 -25z" />
    <glyph glyph-name="less" unicode="&#x3c;" 
d="M61 309v50l324 137v-53l-281 -109l281 -109v-53z" />
    <glyph glyph-name="equal" unicode="=" 
d="M61 388v46h324v-46h-324zM61 234v46h324v-46h-324z" />
    <glyph glyph-name="greater" unicode="&#x3e;" 
d="M61 172v53l280 109l-280 109v53l324 -136v-51z" />
    <glyph glyph-name="question" unicode="?" horiz-adv-x="375" 
d="M215 386l-8 -172h-42l-9 196q43 9 79 42.5t36 85.5q0 42 -25.5 74t-71.5 32q-30 0 -53 -8.5t-39 -21.5l-22 43q22 19 52 30t68 11q69 0 112 -44t43 -116q0 -58 -39.5 -98.5t-80.5 -53.5zM186 -8q-19 0 -32.5 13.5t-13.5 33.5t13.5 33.5t32.5 13.5q20 0 33.5 -13.5
t13.5 -33.5t-13.5 -33.5t-33.5 -13.5z" />
    <glyph glyph-name="at" unicode="@" horiz-adv-x="740" 
d="M489 62q-61 0 -61 96q-30 -48 -58.5 -71t-68.5 -23q-48 0 -72.5 44.5t-24.5 110.5q0 91 46 182.5t119 91.5q39 0 55.5 -20t39.5 -76l14 79h41l-26 -145q-12 -65 -17.5 -102t-5.5 -61q0 -43 6 -54.5t28 -11.5q56 0 94.5 114t38.5 195q0 115 -56.5 184.5t-150.5 69.5
q-141 0 -238.5 -135t-97.5 -311q0 -147 76 -234t198 -87q108 0 165 41.5t107 105.5l18 -25q-64 -80 -119.5 -118.5t-170.5 -38.5q-135 0 -221.5 96t-86.5 261q0 194 108.5 336t262.5 142q107 0 172.5 -76.5t65.5 -210.5q0 -112 -49.5 -230.5t-130.5 -118.5zM374 454
q-57 0 -90 -78t-33 -154q0 -50 16.5 -84t53.5 -34q57 0 92.5 77.5t35.5 150.5q0 60 -22.5 91t-52.5 31z" />
    <glyph glyph-name="A" unicode="A" horiz-adv-x="494" 
d="M408 0l-61 228h-203l-62 -228h-61l202 688h50l200 -688h-65zM271 516l-24 99l-25 -99l-65 -241h177z" />
    <glyph glyph-name="B" unicode="B" horiz-adv-x="481" 
d="M227 -10q-96 0 -152 40v628q23 18 60.5 29t83.5 11q84 0 136 -47t52 -125q0 -62 -31 -102.5t-76 -55.5q50 -15 90.5 -58t40.5 -121q0 -98 -58.5 -148.5t-145.5 -50.5zM217 654q-48 0 -81 -14v-256h29q95 0 137 29.5t42 107.5q0 133 -127 133zM167 343h-31v-289
q16 -7 36.5 -11t50.5 -4q63 0 103 36.5t40 108.5q0 84 -45.5 121.5t-153.5 37.5z" />
    <glyph glyph-name="C" unicode="C" horiz-adv-x="421" 
d="M271 -10q-100 0 -157 98t-57 256q0 150 58.5 252t158.5 102q39 0 66 -9.5t50 -30.5l-18 -42q-15 12 -39 21.5t-53 9.5q-79 0 -117.5 -87t-38.5 -216q0 -126 39.5 -213t115.5 -87q31 0 54 8t41 23l17 -45q-17 -19 -47 -29.5t-73 -10.5z" />
    <glyph glyph-name="D" unicode="D" horiz-adv-x="516" 
d="M225 -10q-51 0 -90 11t-60 29v628q24 19 62 29.5t86 10.5q112 0 174 -91t62 -254q0 -168 -59 -265.5t-175 -97.5zM217 651q-50 0 -78 -13v-583q12 -6 32.5 -9.5t46.5 -3.5q91 0 132.5 79.5t41.5 231.5q0 145 -44 221.5t-131 76.5z" />
    <glyph glyph-name="E" unicode="E" horiz-adv-x="386" 
d="M75 0v688h269v-50h-205v-256h186v-50h-186v-282h205v-50h-269z" />
    <glyph glyph-name="F" unicode="F" horiz-adv-x="376" 
d="M139 638v-256h186v-50h-186v-332h-64v688h268v-50h-204z" />
    <glyph glyph-name="G" unicode="G" horiz-adv-x="509" 
d="M292 -10q-99 0 -167 89.5t-68 269.5q0 168 69.5 258.5t166.5 90.5q94 0 137 -40l-19 -44q-18 14 -47 23t-67 9q-80 0 -126.5 -77t-46.5 -229q0 -129 44.5 -215t122.5 -86q37 0 55.5 4t30.5 11v276h-107v52h171v-352q-27 -19 -63 -29.5t-86 -10.5z" />
    <glyph glyph-name="H" unicode="H" horiz-adv-x="512" 
d="M372 0v332h-233v-332h-64v688h64v-307h233v307h65v-688h-65z" />
    <glyph glyph-name="I" unicode="I" horiz-adv-x="218" 
d="M79 0v688h64v-688h-64z" />
    <glyph glyph-name="J" unicode="J" horiz-adv-x="223" 
d="M-28 -222v47q44 14 77.5 68.5t33.5 130.5v664h65v-664q0 -96 -55.5 -166.5t-120.5 -79.5z" />
    <glyph glyph-name="K" unicode="K" horiz-adv-x="442" 
d="M353 0l-210 361l-2 -361h-62v688h62v-324l208 324h63l-211 -323l224 -365h-72z" />
    <glyph glyph-name="L" unicode="L" horiz-adv-x="350" 
d="M79 0v688h64v-638h186v-50h-250z" />
    <glyph glyph-name="M" unicode="M" horiz-adv-x="656" 
d="M546 0l-47 544l-4 79q-3 -15 -8.5 -37.5t-9.5 -41.5l-126 -544h-49l-127 543q-6 23 -9.5 42.5t-6.5 37.5q-2 -17 -4 -46t-2 -34l-46 -543h-58l71 688h73l118 -507q7 -31 11 -51.5t6 -36.5q3 16 6 30.5t13 56.5l116 508h73l71 -688h-61z" />
    <glyph glyph-name="N" unicode="N" horiz-adv-x="553" 
d="M420 0l-265 552q-8 17 -16.5 39t-12.5 31v-69v-553h-51v688h75l250 -528q13 -28 18 -40.5t10 -26.5v70v525h52v-688h-60z" />
    <glyph glyph-name="O" unicode="O" horiz-adv-x="528" 
d="M264 -10q-107 0 -157 98t-50 256t49.5 256t157.5 98q107 0 157 -99t50 -255q0 -159 -49.5 -256.5t-157.5 -97.5zM264 648q-77 0 -110 -87t-33 -216q0 -131 31.5 -216t111.5 -85t111.5 85t31.5 216q0 130 -32.5 216.5t-110.5 86.5z" />
    <glyph glyph-name="P" unicode="P" horiz-adv-x="433" 
d="M157 293l-20 2v-295h-62v658q21 17 58 28.5t77 11.5q92 0 141 -56t49 -150q0 -91 -50.5 -146t-153.5 -55q-9 0 -20.5 1t-18.5 1zM205 652q-45 0 -68 -12v-298l20 -2q8 -1 15.5 -1h15.5q79 0 115 41.5t36 113.5q0 79 -32 118.5t-102 39.5z" />
    <glyph glyph-name="Q" unicode="Q" horiz-adv-x="528" 
d="M361 18l88 -126l-52 -54l-72 162q-30 -10 -61 -10q-107 0 -157 98.5t-50 255.5q0 158 49.5 256t157.5 98q107 0 157 -99t50 -255q0 -113 -26.5 -198t-83.5 -128zM264 648q-78 0 -110.5 -86t-32.5 -216q0 -133 31 -218t112 -85q80 0 112 85.5t32 217.5q0 133 -32 217.5
t-112 84.5z" />
    <glyph glyph-name="R" unicode="R" horiz-adv-x="451" 
d="M343 0l-204 331l-2 -331h-62v658q22 19 57 29.5t78 10.5q93 0 141.5 -53.5t48.5 -153.5q0 -77 -53 -131t-124 -54l192 -306h-72zM207 654q-45 0 -71 -14v-298q12 -3 23 -3q74 0 127 33t53 118q0 83 -31.5 123.5t-100.5 40.5z" />
    <glyph glyph-name="S" unicode="S" horiz-adv-x="402" 
d="M179 -10q-47 0 -78 9.5t-57 30.5l19 53q20 -16 46 -26t64 -10q49 0 81 30t32 83t-25 88t-87.5 83t-92.5 94.5t-30 102.5q0 76 46 123t114 47q40 0 68.5 -10.5t47.5 -29.5l-17 -46q-16 13 -41 23.5t-56 10.5q-47 0 -73.5 -28.5t-26.5 -79.5q0 -48 25 -83.5t87.5 -83.5
t94.5 -93.5t32 -105.5q0 -82 -47 -132t-126 -50z" />
    <glyph glyph-name="T" unicode="T" horiz-adv-x="350" 
d="M207 638v-638h-64v638h-121v50h306v-50h-121z" />
    <glyph glyph-name="U" unicode="U" horiz-adv-x="505" 
d="M252 -11q-78 0 -127.5 53.5t-49.5 145.5v500h64v-515q0 -56 32.5 -91.5t84.5 -35.5q51 0 84 35t33 92v515h57v-501q0 -91 -49.5 -144.5t-128.5 -53.5z" />
    <glyph glyph-name="V" unicode="V" horiz-adv-x="452" 
d="M253 0h-53l-172 688h67l117 -519l13 -73l17 73l120 519h62z" />
    <glyph glyph-name="W" unicode="W" horiz-adv-x="683" 
d="M512 0h-55l-100 489q-5 26 -8 50.5t-5 34.5q-3 -17 -6.5 -35t-10.5 -51l-102 -488h-55l-139 688h67l90 -516q4 -21 6 -44.5t4 -31.5q1 8 5.5 30t9.5 46l108 516h47l106 -515q5 -26 7.5 -47t3.5 -30q3 16 4.5 25t9.5 52l94 515h59z" />
    <glyph glyph-name="X" unicode="X" horiz-adv-x="424" 
d="M334 0l-122 301l-130 -301h-65l163 356l-145 332h70l108 -272l118 272h61l-147 -324l162 -364h-73z" />
    <glyph glyph-name="Y" unicode="Y" horiz-adv-x="423" 
d="M244 312v-312h-64v312l-163 376h71l126 -321l130 321h62z" />
    <glyph glyph-name="Z" unicode="Z" horiz-adv-x="381" 
d="M30 0l228 638h-215v50h300l-228 -638h231v-50h-316z" />
    <glyph glyph-name="bracketleft" unicode="[" horiz-adv-x="286" 
d="M75 -215v1000h174v-43h-117v-914h117v-43h-174z" />
    <glyph glyph-name="backslash" unicode="\" horiz-adv-x="483" 
d="M423 -223l-400 999l42 18l400 -1000z" />
    <glyph glyph-name="bracketright" unicode="]" horiz-adv-x="286" 
d="M37 -215v43h117v914h-117v43h174v-1000h-174z" />
    <glyph glyph-name="asciicircum" unicode="^" horiz-adv-x="445" 
d="M357 470l-134 175l-134 -175l-21 26l120 177q16 23 35 23q20 0 35 -23l120 -177z" />
    <glyph glyph-name="underscore" unicode="_" 
d="M-10 -196v49h466v-49h-466z" />
    <glyph glyph-name="grave" unicode="`" horiz-adv-x="153" 
d="M82 599l-94 135q3 15 24 15t41 -15l60 -135h-31z" />
    <glyph glyph-name="a" unicode="a" horiz-adv-x="419" 
d="M212 -10q-82 0 -123.5 43t-41.5 115q0 100 68 144.5t183 58.5v31q0 62 -27.5 90.5t-74.5 28.5q-30 0 -58.5 -10t-47.5 -24l-15 42q22 17 54.5 28.5t71.5 11.5q66 0 109.5 -39t43.5 -128v-352q-27 -19 -62.5 -29.5t-79.5 -10.5zM298 309q-101 -15 -147.5 -49t-46.5 -112
q0 -57 29.5 -86.5t84.5 -29.5q24 0 45.5 5t34.5 13v259z" />
    <glyph glyph-name="b" unicode="b" horiz-adv-x="442" 
d="M193 -10q-46 0 -75.5 10t-52.5 30v755h60v-262q13 11 35 17.5t53 6.5q81 0 129.5 -73t48.5 -195q0 -129 -51 -209t-147 -80zM204 506q-23 0 -41 -4.5t-38 -17.5v-433q23 -13 67 -13q73 0 106.5 64.5t33.5 176.5q0 98 -33 162.5t-95 64.5z" />
    <glyph glyph-name="c" unicode="c" horiz-adv-x="359" 
d="M222 -10q-80 0 -125.5 73.5t-45.5 205.5q0 131 47 205.5t126 74.5q38 0 62.5 -10.5t41.5 -29.5l-15 -41q-13 14 -34 23t-47 9q-61 0 -90.5 -62t-29.5 -165q0 -104 31 -167.5t87 -63.5q27 0 47.5 8.5t34.5 23.5l16 -44q-14 -17 -41.5 -28.5t-64.5 -11.5z" />
    <glyph glyph-name="d" unicode="d" horiz-adv-x="443" 
d="M245 -10q-95 0 -144.5 73t-49.5 198q0 134 56 209.5t146 75.5q35 0 65 -10v249h60v-755q-19 -17 -55 -28.5t-78 -11.5zM318 494q-20 5 -30 7t-28 2q-79 0 -114 -67t-35 -168q0 -107 33 -169t105 -62q24 0 40.5 2.5t28.5 11.5v443z" />
    <glyph glyph-name="e" unicode="e" horiz-adv-x="444" 
d="M108 250q0 -99 39 -153.5t104 -54.5q38 0 67 10t47 25l17 -47q-19 -17 -54 -28.5t-78 -11.5q-89 0 -144 69t-55 212q0 135 49 206.5t128 71.5q80 0 124 -65t44 -199zM227 499q-52 0 -86 -54t-34 -152l226 29q0 89 -27.5 133t-78.5 44z" />
    <glyph glyph-name="f" unicode="f" horiz-adv-x="259" 
d="M149 498v-498h-58v498h-49v41h49v81q0 76 37 120.5t107 44.5v-46q-36 0 -61 -27.5t-25 -82.5v-90h86v-41h-86z" />
    <glyph glyph-name="g" unicode="g" horiz-adv-x="442" 
d="M210 -225q-43 0 -78.5 11t-56.5 29l22 45q14 -12 45 -22.5t61 -10.5q59 0 87.5 42.5t28.5 111.5v36q-19 -14 -41.5 -20t-49.5 -6q-81 0 -129 72t-48 196q0 129 51.5 209.5t147.5 80.5q46 0 76 -10.5t52 -29.5v-520q0 -98 -44 -156t-124 -58zM319 487q-22 14 -70 14
q-70 0 -104 -64t-34 -178q0 -100 33.5 -162t93.5 -62q22 0 39 4t42 19v429z" />
    <glyph glyph-name="h" unicode="h" horiz-adv-x="443" 
d="M318 0v392q0 54 -26.5 82.5t-69.5 28.5q-56 0 -97 -29v-474h-60v785h60v-267q48 31 100 31q68 0 110.5 -38.5t42.5 -118.5v-392h-60z" />
    <glyph glyph-name="i" unicode="i" horiz-adv-x="201" 
d="M100 653q-16 0 -27 11t-11 27q0 17 11 28t27 11t27.5 -11.5t11.5 -27.5t-11 -27t-28 -11zM70 0v539h60v-539h-60z" />
    <glyph glyph-name="j" unicode="j" horiz-adv-x="197" 
d="M97 653q-16 0 -27 11t-11 27q0 17 11 28t27 11t27 -11t11 -28q0 -16 -11 -27t-27 -11zM-20 -222v46q39 15 63 62.5t24 133.5v519h59v-520q0 -106 -44 -169.5t-102 -71.5z" />
    <glyph glyph-name="k" unicode="k" horiz-adv-x="404" 
d="M331 0l-202 285l-2 -285h-58v785h58v-498l197 252h61l-198 -251l211 -288h-67z" />
    <glyph glyph-name="l" unicode="l" horiz-adv-x="204" 
d="M72 0v785h60v-785h-60z" />
    <glyph glyph-name="m" unicode="m" horiz-adv-x="696" 
d="M571 0v395q0 50 -25.5 78.5t-68.5 28.5q-59 0 -99 -52v-450h-60v394q0 48 -29.5 78.5t-76.5 30.5q-32 0 -50 -4t-37 -14v-485h-60v509q31 20 65 30t85 10t83.5 -16.5t52.5 -46.5q52 63 139 63q60 0 100.5 -40.5t40.5 -113.5v-395h-60z" />
    <glyph glyph-name="n" unicode="n" horiz-adv-x="443" 
d="M318 0v395q0 108 -100 108q-34 0 -53.5 -4.5t-39.5 -14.5v-484h-60v509q30 20 69 30t93 10q69 0 110 -36.5t41 -117.5v-395h-60z" />
    <glyph glyph-name="o" unicode="o" horiz-adv-x="445" 
d="M223 -10q-89 0 -130.5 77t-41.5 202q0 126 41.5 203t129.5 77q89 0 130.5 -76.5t41.5 -203.5q0 -124 -41.5 -201.5t-129.5 -77.5zM223 507q-62 0 -87 -68t-25 -170q0 -100 25 -165.5t87 -65.5q63 0 87 64.5t24 166.5t-24 170t-87 68z" />
    <glyph glyph-name="p" unicode="p" horiz-adv-x="443" 
d="M189 -9q-17 0 -32 2.5t-32 8.5v-217h-60v724q24 19 58 29.5t76 10.5q95 0 144 -73.5t49 -197.5q0 -135 -56 -211t-147 -76zM194 505q-24 0 -40.5 -4t-28.5 -11v-444q15 -6 26.5 -8.5t30.5 -2.5q78 0 114 68.5t36 168.5q0 106 -34 169.5t-104 63.5z" />
    <glyph glyph-name="q" unicode="q" horiz-adv-x="442" 
d="M318 -215v231q-15 -12 -39 -18.5t-51 -6.5q-81 0 -129 72t-48 196q0 129 51.5 209.5t147.5 80.5q45 0 74.5 -9.5t53.5 -30.5v-724h-60zM318 488q-12 6 -28.5 10t-39.5 4q-70 0 -104.5 -64.5t-34.5 -178.5q0 -100 34 -161.5t93 -61.5q26 0 44 5.5t36 15.5v431z" />
    <glyph glyph-name="r" unicode="r" horiz-adv-x="270" 
d="M235 492q-10 4 -23 6t-25 2q-38 0 -62 -18v-482h-60v509q37 22 74 31t114 9z" />
    <glyph glyph-name="s" unicode="s" horiz-adv-x="346" 
d="M156 -10q-39 0 -68 9.5t-51 30.5l17 49q16 -16 40.5 -26t57.5 -10q36 0 61.5 23.5t25.5 61.5q0 43 -18.5 67.5t-73.5 64t-77.5 77.5t-22.5 77q0 57 36 96t93 39q70 0 108 -40l-17 -43q-16 16 -37.5 25t-49.5 9q-30 0 -52 -23t-22 -55q0 -30 16 -56t71 -65.5t82.5 -75.5
t27.5 -94t-43.5 -99.5t-103.5 -41.5z" />
    <glyph glyph-name="t" unicode="t" horiz-adv-x="264" 
d="M197 -3q-47 0 -76.5 32t-29.5 95v374h-49v41h49v128l58 25v-153h86v-41h-86v-372q0 -42 16.5 -62t43.5 -20l26 4v-45q-14 -6 -38 -6z" />
    <glyph glyph-name="u" unicode="u" horiz-adv-x="437" 
d="M219 -11q-154 0 -154 173v377h60v-384q0 -57 26.5 -87.5t72.5 -30.5q30 0 49.5 5.5t38.5 18.5v478h60v-504q-27 -20 -64.5 -33t-88.5 -13z" />
    <glyph glyph-name="v" unicode="v" horiz-adv-x="419" 
d="M232 0h-45l-156 539h63l116 -449l120 449h58z" />
    <glyph glyph-name="w" unicode="w" horiz-adv-x="656" 
d="M482 0h-43l-108 444l-115 -444h-43l-137 539h64l95 -449l111 449h50l105 -449l100 449h59z" />
    <glyph glyph-name="x" unicode="x" horiz-adv-x="401" 
d="M307 0l-106 231l-111 -231h-61l141 277l-126 262h64l92 -212l101 212h57l-128 -252l142 -287h-65z" />
    <glyph glyph-name="y" unicode="y" horiz-adv-x="420" 
d="M158 -215h-62l79 215l-144 539h64l105 -459l130 459h59z" />
    <glyph glyph-name="z" unicode="z" horiz-adv-x="347" 
d="M24 0l209 498h-191v41h271l-206 -497h210v-42h-293z" />
    <glyph glyph-name="braceleft" unicode="{" horiz-adv-x="312" 
d="M111 15v160q0 76 -12.5 102.5t-47.5 26.5v46q35 0 47.5 26.5t12.5 102.5v160q0 73 38.5 109.5t111.5 36.5v-43q-44 0 -68.5 -26t-24.5 -78v-190q0 -55 -16 -82.5t-49 -36.5q32 -11 48 -38t16 -83v-191q0 -53 24.5 -78.5t69.5 -25.5v-44q-72 0 -111 36t-39 110z" />
    <glyph glyph-name="bar" unicode="|" horiz-adv-x="196" 
d="M73 -215v1000h50v-1000h-50z" />
    <glyph glyph-name="braceright" unicode="}" horiz-adv-x="312" 
d="M201 176v-160q0 -75 -39 -111t-111 -36v43q44 0 68.5 26t24.5 78v191q0 55 16 82.5t48 36.5q-32 11 -48 38t-16 83v191q0 52 -24 78t-69 26v43q71 0 110 -37t39 -109v-159q0 -77 12.5 -103t48.5 -26v-46q-35 0 -47.5 -26.5t-12.5 -102.5z" />
    <glyph glyph-name="asciitilde" unicode="~" horiz-adv-x="497" 
d="M330 274q-5 -1 -15 -1q-24 0 -69 27t-62 27q-8 0 -22 -2.5t-27 -19.5t-22 -41l-30 34q12 35 28.5 55t37 23t30.5 3q27 0 70 -27.5t63 -27.5q7 0 21 3t28 21.5t20 40.5l33 -35q-8 -33 -27 -53t-57 -27z" />
    <glyph glyph-name="nonbreakingspace" unicode="&#xa0;" horiz-adv-x="276" 
 />
    <glyph glyph-name="exclamdown" unicode="&#xa1;" horiz-adv-x="267" 
d="M146 387q-19 0 -32.5 13.5t-13.5 33.5t13.5 33.5t32.5 13.5q20 0 33 -13t13 -34q0 -19 -13 -33t-33 -14zM106 -215l19 474h42l19 -474h-80z" />
    <glyph glyph-name="cent" unicode="&#xa2;" 
d="M239 92l6 -92h-48l5 92q-61 12 -95 75.5t-34 165.5q0 104 34 166t97 73l-6 94h47l-5 -93q26 -3 45.5 -12.5t30.5 -24.5l-15 -41q-9 10 -28 19t-44 9q-48 0 -71 -50t-23 -137t24.5 -139.5t69.5 -52.5q26 0 43 8t29 21l16 -47q-13 -15 -32.5 -24.5t-45.5 -9.5z" />
    <glyph glyph-name="sterling" unicode="&#xa3;" 
d="M56 0q34 50 58 113.5t24 127.5q0 50 -8 91h-79v44h70q-9 37 -14.5 68.5t-5.5 69.5q0 85 47.5 134.5t124.5 49.5q43 0 73.5 -11.5t47.5 -28.5l-21 -44q-15 11 -40.5 20t-57.5 9q-57 0 -84.5 -40.5t-27.5 -104.5q0 -37 3.5 -64t10.5 -58h114v-44h-105q3 -26 5 -46t2 -45
q0 -45 -14.5 -96t-37.5 -89h261v-56h-346z" />
    <glyph glyph-name="currency" unicode="&#xa4;" 
d="M392 133l-45 48q-53 -48 -124 -48q-70 0 -124 48l-44 -48l-31 33l44 49q-22 28 -32.5 62t-10.5 72q0 37 10.5 71.5t32.5 62.5l-44 49l31 33l44 -48q54 48 124 48q33 0 65.5 -12t58.5 -36l45 48l30 -33l-43 -49q21 -27 32 -62.5t11 -71.5q0 -37 -10.5 -71t-32.5 -63
l43 -49zM223 520q-65 0 -108.5 -50.5t-43.5 -120.5t43.5 -120.5t108.5 -50.5q66 0 109.5 50t43.5 121q0 70 -43.5 120.5t-109.5 50.5z" />
    <glyph glyph-name="yen" unicode="&#xa5;" 
d="M307 441l88 7v-35l-96 7l-47 -107l143 7v-36l-140 7v-291h-63v291l-142 -7v36l145 -7l-47 107l-98 -7v35l89 -7l-106 247h74l118 -326l125 326h63z" />
    <glyph glyph-name="section" unicode="&#xa7;" 
d="M280 45q34 -34 48 -65t14 -72q0 -57 -38 -95t-93 -38q-78 0 -118 40l21 48q15 -16 36 -25.5t52 -9.5q30 0 53 22t23 50q0 39 -8 60t-42 55l-83 83q-40 40 -55.5 81t-15.5 93q0 59 26.5 99t65.5 70q-28 36 -41 63.5t-13 65.5q0 57 35.5 92.5t91.5 35.5q38 0 64.5 -11.5
t42.5 -28.5l-20 -41q-11 11 -33.5 20.5t-48.5 9.5q-37 0 -55 -21.5t-18 -55.5q0 -26 13.5 -53t50.5 -64l60 -60q45 -45 64.5 -86t19.5 -91t-31.5 -97.5t-67.5 -73.5zM266 342l-67 68q-25 -18 -48.5 -53.5t-23.5 -78.5q0 -42 16 -77t42 -61l61 -62q25 17 50 53t25 74
q0 45 -11 74t-44 63z" />
    <glyph glyph-name="dieresis" unicode="&#xa8;" horiz-adv-x="153" 
d="M146 613q-15 0 -26 11t-11 26t11 26t26 11q14 0 25 -11t11 -26t-10 -26t-26 -11zM7 613q-14 0 -25 11t-11 26t10 26t26 11q15 0 26 -11t11 -26t-11 -26t-26 -11z" />
    <glyph glyph-name="copyright" unicode="&#xa9;" horiz-adv-x="820" 
d="M410 -9q-146 0 -249.5 102.5t-103.5 249.5t103 250t250 103t250 -103t103 -250q0 -146 -103 -249t-250 -103zM410 662q-132 0 -225.5 -93.5t-93.5 -225.5t93 -225t226 -93q131 0 225 93t94 225t-93.5 225.5t-225.5 93.5zM412 134q-87 0 -149.5 61.5t-62.5 149.5t62 150
t150 62q49 0 91 -20.5t73 -57.5l-29 -27q-24 31 -59.5 48.5t-75.5 17.5q-71 0 -122 -50t-51 -123q0 -71 50.5 -121.5t122.5 -50.5q39 0 74 16.5t60 46.5l30 -24q-30 -36 -72.5 -57t-91.5 -21z" />
    <glyph glyph-name="ordfeminine" unicode="&#xaa;" horiz-adv-x="286" 
d="M151 358q-56 0 -85 26t-29 69q0 60 46.5 86.5t126.5 35.5v18q0 39 -18 55.5t-52 16.5q-20 0 -40.5 -6.5t-32.5 -14.5l-11 25q14 9 38 16.5t49 7.5q46 0 76 -23t30 -77v-211q-18 -11 -43 -17.5t-55 -6.5zM210 549q-70 -9 -102 -29t-32 -67q0 -70 79 -70q17 0 29 2t26 9
v155z" />
    <glyph glyph-name="guillemotleft" unicode="&#xab;" horiz-adv-x="450" 
d="M340 124l-131 210l131 210l31 -27l-112 -183l112 -183zM201 124l-131 210l131 210l30 -27l-111 -183l111 -183z" />
    <glyph glyph-name="logicalnot" unicode="&#xac;" 
d="M337 153v158l-276 -1v48h324v-205h-48z" />
    <glyph glyph-name="registered" unicode="&#xae;" horiz-adv-x="820" 
d="M410 -9q-146 0 -249.5 102.5t-103.5 249.5t103 250t250 103t250 -103t103 -250q0 -146 -103 -249t-250 -103zM410 662q-132 0 -225.5 -93.5t-93.5 -225.5t93 -225t226 -93q131 0 225 93t94 225t-93.5 225.5t-225.5 93.5zM507 135l-147 203h-17l-1 -203h-37v416
q38 19 94 19q50 0 89 -29t39 -88q0 -54 -35 -84t-91 -30l149 -204h-43zM393 539q-26 0 -51 -9v-163h43q45 0 74.5 20.5t29.5 66.5q0 44 -29.5 64.5t-66.5 20.5z" />
    <glyph glyph-name="degree" unicode="&#xb0;" horiz-adv-x="410" 
d="M205 408q-60 0 -102.5 42.5t-42.5 102.5t42.5 102.5t102.5 42.5t102.5 -42.5t42.5 -102.5t-42.5 -102.5t-102.5 -42.5zM205 656q-43 0 -73 -30t-30 -73t30 -73t73 -30t73 30t30 73t-30 73t-73 30z" />
    <glyph glyph-name="plusminus" unicode="&#xb1;" 
d="M246 365v-181h-47v181h-138v47h138v180h47v-180h139v-47h-139zM61 72v47h324v-47h-324z" />
    <glyph glyph-name="acute" unicode="&#xb4;" horiz-adv-x="153" 
d="M71 598h-31l58 134q20 15 42 15q21 0 24 -14z" />
    <glyph glyph-name="mu" unicode="&#xb5;" horiz-adv-x="443" 
d="M227 -8q-24 0 -51 9.5t-51 24.5v-241h-60v754h60v-469q22 -15 46.5 -23.5t52.5 -8.5q27 0 47.5 4t46.5 19v478h60v-504q-32 -22 -65 -32.5t-86 -10.5z" />
    <glyph glyph-name="paragraph" unicode="&#xb6;" 
d="M382 649v-864h-39v864h-140v-864h-39v532q-65 12 -103 57.5t-38 121.5q0 95 52 143.5t132 48.5h200v-39h-25z" />
    <glyph glyph-name="cedilla" unicode="&#xb8;" horiz-adv-x="153" 
d="M-12 -168l13 26q7 -1 13.5 -1h13.5q37 0 62.5 10t25.5 27q0 16 -17.5 22.5t-63.5 6.5l13 26q8 1 17 1h14q87 0 87 -54q0 -32 -37.5 -50t-92.5 -18q-27 0 -48 4z" />
    <glyph glyph-name="ordmasculine" unicode="&#xba;" horiz-adv-x="303" 
d="M152 359q-62 0 -90.5 46.5t-28.5 121.5q0 77 28 122.5t90 45.5t90.5 -46t28.5 -122q0 -74 -29 -121t-89 -47zM152 670q-44 0 -61 -40.5t-17 -102.5q0 -61 17 -100t61 -39q42 0 59 39.5t17 99.5q0 62 -16.5 102.5t-59.5 40.5z" />
    <glyph glyph-name="guillemotright" unicode="&#xbb;" horiz-adv-x="450" 
d="M250 124l-31 27l112 183l-112 183l31 27l131 -210zM111 124l-31 27l112 183l-112 183l31 27l130 -210z" />
    <glyph glyph-name="questiondown" unicode="&#xbf;" horiz-adv-x="378" 
d="M211 387q-19 0 -32.5 13.5t-13.5 33.5t13.5 33.5t32.5 13.5q20 0 33.5 -13.5t13.5 -33.5t-13.5 -33.5t-33.5 -13.5zM213 -224q-70 0 -111.5 42.5t-41.5 113.5q0 62 39 102t83 55l8 170h42l9 -195q-48 -11 -82.5 -44t-34.5 -88q0 -44 24.5 -73.5t72.5 -29.5q33 0 55 6.5
t41 19.5l21 -41q-19 -17 -52 -27.5t-73 -10.5z" />
    <glyph glyph-name="Agrave" unicode="&#xc0;" horiz-adv-x="494" 
d="M231 740l-93 134q2 15 23 15q22 0 42 -15l60 -134h-32zM408 0l-61 228h-203l-62 -228h-61l202 688h50l200 -688h-65zM271 516l-24 99l-25 -99l-65 -241h177z" />
    <glyph glyph-name="Aacute" unicode="&#xc1;" horiz-adv-x="494" 
d="M264 738h-31l58 134q20 15 42 15q20 0 23 -14zM408 0l-61 228h-203l-62 -228h-61l202 688h50l200 -688h-65zM271 516l-24 99l-25 -99l-65 -241h177z" />
    <glyph glyph-name="Acircumflex" unicode="&#xc2;" horiz-adv-x="494" 
d="M337 737l-89 76l-89 -76l-15 15l80 98q10 13 24 13t23 -13l80 -98zM408 0l-61 228h-203l-62 -228h-61l202 688h50l200 -688h-65zM271 516l-24 99l-25 -99l-65 -241h177z" />
    <glyph glyph-name="Atilde" unicode="&#xc3;" horiz-adv-x="494" 
d="M312 751q-22 -4 -54 17t-51 18q-16 -3 -25 -14.5t-15 -27.5l-27 32q9 25 19.5 37.5t34.5 16.5q23 3 56.5 -18t49.5 -18t25.5 15.5t13.5 27.5l29 -33q-6 -22 -18 -35t-38 -18zM408 0l-61 228h-203l-62 -228h-61l202 688h50l200 -688h-65zM271 516l-24 99l-25 -99l-65 -241
h177z" />
    <glyph glyph-name="Adieresis" unicode="&#xc4;" horiz-adv-x="494" 
d="M317 751q-14 0 -25 11t-11 26q0 16 10.5 26.5t25.5 10.5t25.5 -10.5t10.5 -26.5q0 -15 -10 -26t-26 -11zM178 751q-14 0 -25 11t-11 26q0 16 10.5 26.5t25.5 10.5q16 0 26.5 -10.5t10.5 -26.5t-10.5 -26.5t-26.5 -10.5zM408 0l-61 228h-203l-62 -228h-61l202 688h50
l200 -688h-65zM271 516l-24 99l-25 -99l-65 -241h177z" />
    <glyph glyph-name="Aring" unicode="&#xc5;" horiz-adv-x="494" 
d="M248 737q-32 0 -54 22t-22 54t22 54t54 22t54 -22t22 -54t-22 -54t-54 -22zM408 0l-61 228h-203l-62 -228h-61l202 688h50l200 -688h-65zM248 864q-21 0 -36 -15t-15 -36q0 -20 15 -35t36 -15t36 14t15 36q0 21 -15 36t-36 15zM271 516l-24 99l-25 -99l-65 -242h177z" />
    <glyph glyph-name="AE" unicode="&#xc6;" horiz-adv-x="634" 
d="M396 0l-46 228h-202l-78 -228h-63l249 688h304v-50h-242l57 -256h185v-50h-173l62 -282h164v-50h-217zM290 526q-4 22 -8.5 48.5t-5.5 35.5l-28 -83l-85 -254h178z" />
    <glyph glyph-name="Ccedilla" unicode="&#xc7;" horiz-adv-x="421" 
d="M271 -10q-100 0 -157 98t-57 256q0 150 58.5 252t158.5 102q39 0 66 -9.5t50 -30.5l-18 -42q-15 12 -39 21.5t-53 9.5q-79 0 -117.5 -87t-38.5 -216q0 -126 39.5 -213t115.5 -87q31 0 54 8t41 23l17 -45q-17 -19 -47 -29.5t-73 -10.5zM163 -168l14 26q7 -1 13.5 -1h13.5
q36 0 61.5 10.5t25.5 26.5t-17.5 22.5t-63.5 6.5l13 26q8 1 17 1h14q87 0 87 -54q0 -32 -37.5 -50t-92.5 -18q-27 0 -48 4z" />
    <glyph glyph-name="Egrave" unicode="&#xc8;" horiz-adv-x="386" 
d="M204 740l-93 134q3 15 24 15t41 -15l60 -134h-32zM75 0v688h269v-50h-205v-256h186v-51h-186v-281h205v-50h-269z" />
    <glyph glyph-name="Eacute" unicode="&#xc9;" horiz-adv-x="386" 
d="M200 738h-31l58 134q20 15 42 15q20 0 23 -14zM75 0v688h269v-50h-205v-256h186v-50h-186v-282h205v-50h-269z" />
    <glyph glyph-name="Ecircumflex" unicode="&#xca;" horiz-adv-x="386" 
d="M294 737l-90 76l-89 -76l-14 15l80 98q10 13 23 13q14 0 24 -13l80 -98zM75 0v688h269l-1 -50h-204v-256h186v-51h-186v-281h205v-50h-269z" />
    <glyph glyph-name="Edieresis" unicode="&#xcb;" horiz-adv-x="386" 
d="M279 751q-14 0 -25 11t-11 26q0 16 10.5 26.5t25.5 10.5t25.5 -10.5t10.5 -26.5q0 -15 -10 -26t-26 -11zM140 751q-14 0 -25 11t-11 26q0 16 10.5 26.5t25.5 10.5q16 0 26.5 -10.5t10.5 -26.5t-10.5 -26.5t-26.5 -10.5zM75 0v688h269v-50h-205v-256h186v-51h-186v-281
h205v-50h-269z" />
    <glyph glyph-name="Igrave" unicode="&#xcc;" horiz-adv-x="221" 
d="M106 740l-93 134q3 15 24 15t41 -15l60 -134h-32zM82 0v688h64v-688h-64z" />
    <glyph glyph-name="Iacute" unicode="&#xcd;" horiz-adv-x="215" 
d="M110 738h-32l59 134q20 15 42 15q20 0 23 -14zM75 0v688h64v-688h-64z" />
    <glyph glyph-name="Icircumflex" unicode="&#xce;" horiz-adv-x="219" 
d="M199 737l-90 76l-89 -76l-14 15l80 98q10 13 23 13q14 0 24 -13l80 -98zM77 0v688h64v-688h-64z" />
    <glyph glyph-name="Idieresis" unicode="&#xcf;" horiz-adv-x="219" 
d="M179 751q-15 0 -26 11t-11 26t11 26t26 11t25.5 -10.5t10.5 -26.5q0 -15 -10 -26t-26 -11zM40 751q-14 0 -25 11t-11 26q0 16 10.5 26.5t25.5 10.5q16 0 26.5 -10.5t10.5 -26.5q0 -15 -11 -26t-26 -11zM77 0v688h64v-688h-64z" />
    <glyph glyph-name="Ntilde" unicode="&#xd1;" horiz-adv-x="553" 
d="M331 751q-22 -4 -54 17t-51 18q-16 -3 -25 -14.5t-15 -27.5l-27 32q9 25 19.5 37.5t34.5 16.5q23 3 56.5 -18t49.5 -18t25.5 15.5t13.5 27.5l29 -33q-6 -22 -18 -35t-38 -18zM420 0l-265 552q-8 17 -16.5 39t-12.5 31v-69v-553h-51v688h75l250 -528q13 -28 18 -40.5
t10 -26.5v70v525h52v-688h-60z" />
    <glyph glyph-name="Ograve" unicode="&#xd2;" horiz-adv-x="528" 
d="M257 740l-93 134q2 15 23 15q22 0 42 -15l60 -134h-32zM264 -10q-107 0 -157 98t-50 256t49.5 256t157.5 98q107 0 157 -99t50 -255q0 -159 -49.5 -256.5t-157.5 -97.5zM264 648q-77 0 -110 -87t-33 -216q0 -131 31.5 -216t111.5 -85t111.5 85t31.5 216
q0 130 -32.5 216.5t-110.5 86.5z" />
    <glyph glyph-name="Oacute" unicode="&#xd3;" horiz-adv-x="528" 
d="M267 738h-32l59 134q20 15 42 15q20 0 23 -14zM264 -10q-107 0 -157 98t-50 256t49.5 256t157.5 98q107 0 157 -99t50 -255q0 -159 -49.5 -256.5t-157.5 -97.5zM264 648q-77 0 -110 -87t-33 -216q0 -131 31.5 -216t111.5 -85t111.5 85t31.5 216q0 130 -32.5 216.5
t-110.5 86.5z" />
    <glyph glyph-name="Ocircumflex" unicode="&#xd4;" horiz-adv-x="528" 
d="M353 737l-89 76l-89 -76l-15 15l80 98q10 13 24 13t23 -13l80 -98zM264 -10q-107 0 -157 98t-50 256t49.5 256t157.5 98q107 0 157 -99t50 -255q0 -159 -49.5 -256.5t-157.5 -97.5zM264 648q-77 0 -110 -87t-33 -216q0 -131 31.5 -216t111.5 -85t111.5 85t31.5 216
q0 130 -32.5 216.5t-110.5 86.5z" />
    <glyph glyph-name="Otilde" unicode="&#xd5;" horiz-adv-x="528" 
d="M321 751q-22 -4 -54 17t-51 18q-16 -3 -25 -14.5t-15 -27.5l-27 32q9 25 19.5 37.5t34.5 16.5q23 3 56.5 -18t49.5 -18t25.5 15.5t13.5 27.5l29 -33q-6 -22 -18 -35t-38 -18zM264 -10q-107 0 -157 98t-50 256t49.5 256t157.5 98q107 0 157 -99t50 -255
q0 -159 -49.5 -256.5t-157.5 -97.5zM264 648q-77 0 -110 -87t-33 -216q0 -131 31.5 -216t111.5 -85t111.5 85t31.5 216q0 130 -32.5 216.5t-110.5 86.5z" />
    <glyph glyph-name="Odieresis" unicode="&#xd6;" horiz-adv-x="528" 
d="M333 751q-14 0 -25 11t-11 26q0 16 10.5 26.5t25.5 10.5q16 0 26.5 -10.5t10.5 -26.5t-10.5 -26.5t-26.5 -10.5zM195 751q-14 0 -25 11t-11 26q0 16 10.5 26.5t25.5 10.5t25.5 -10.5t10.5 -26.5q0 -15 -10 -26t-26 -11zM264 -10q-107 0 -157 98t-50 256t49.5 256
t157.5 98q107 0 157 -99t50 -255q0 -159 -49.5 -256.5t-157.5 -97.5zM264 648q-77 0 -110 -87t-33 -216q0 -131 31.5 -216t111.5 -85t111.5 85t31.5 216q0 130 -32.5 216.5t-110.5 86.5z" />
    <glyph glyph-name="Oslash" unicode="&#xd8;" horiz-adv-x="568" 
d="M284 -10q-81 0 -139 61l-61 -115l-22 13l65 124q-34 51 -50.5 119.5t-16.5 151.5q0 154 56.5 254t167.5 100q81 0 141 -63l59 111l23 -13l-64 -121q32 -48 48.5 -119t16.5 -149q0 -155 -56 -254.5t-168 -99.5zM284 657q-91 0 -129 -95t-38 -216q0 -62 8 -114t31 -105
l244 460q-21 34 -49.5 52t-66.5 18zM415 560l-244 -460q21 -32 48.5 -48t64.5 -16q91 0 129 94.5t38 215.5q0 58 -8 110t-28 104z" />
    <glyph glyph-name="Ugrave" unicode="&#xd9;" horiz-adv-x="505" 
d="M254 740l-93 134q2 15 23 15q22 0 42 -15l60 -134h-32zM252 -11q-78 0 -127.5 53.5t-49.5 145.5v500h64v-515q0 -56 32.5 -91.5t84.5 -35.5q51 0 84 35t33 92v515h57v-501q0 -91 -49.5 -144.5t-128.5 -53.5z" />
    <glyph glyph-name="Uacute" unicode="&#xda;" horiz-adv-x="505" 
d="M247 738h-32l59 134q20 15 42 15q20 0 23 -14zM252 -11q-78 0 -127.5 53.5t-49.5 145.5v500h64v-515q0 -56 32.5 -91.5t84.5 -35.5q51 0 84 35t33 92v515h57v-501q0 -91 -49.5 -144.5t-128.5 -53.5z" />
    <glyph glyph-name="Ucircumflex" unicode="&#xdb;" horiz-adv-x="505" 
d="M343 737l-90 76l-89 -76l-14 15l80 98q10 13 23 13q14 0 24 -13l80 -98zM252 -11q-78 0 -127.5 53.5t-49.5 145.5v500h64v-515q0 -56 32.5 -91.5t84.5 -35.5q51 0 84 35t33 92v515h57v-501q0 -91 -49.5 -144.5t-128.5 -53.5z" />
    <glyph glyph-name="Udieresis" unicode="&#xdc;" horiz-adv-x="505" 
d="M324 751q-14 0 -25 11t-11 26q0 16 10.5 26.5t25.5 10.5t25.5 -10.5t10.5 -26.5q0 -15 -10 -26t-26 -11zM185 751q-14 0 -25 11t-11 26q0 16 10.5 26.5t25.5 10.5q16 0 26.5 -10.5t10.5 -26.5t-10.5 -26.5t-26.5 -10.5zM252 -11q-78 0 -127.5 53.5t-49.5 145.5v500h64
v-515q0 -56 32.5 -91.5t84.5 -35.5q51 0 84 35t33 92v515h57v-501q0 -91 -49.5 -144.5t-128.5 -53.5z" />
    <glyph glyph-name="germandbls" unicode="&#xdf;" horiz-adv-x="453" 
d="M269 -6q-29 0 -51 6.5t-36 18.5l15 44q9 -8 26.5 -13.5t43.5 -5.5q38 0 61.5 24.5t23.5 66.5q0 34 -12.5 56.5t-52 59.5t-57.5 67.5t-18 64.5q0 52 26 81.5t73 44.5q4 14 6 32t2 40q0 77 -20.5 122.5t-70.5 45.5q-55 0 -77 -58t-22 -150v-541h-60v540q0 116 40.5 185.5
t118.5 69.5q75 0 112.5 -60.5t37.5 -155.5q0 -29 -3 -53.5t-10 -45.5q-50 -6 -74 -27t-24 -64q0 -40 56.5 -94t72.5 -83t16 -76q0 -63 -40.5 -102.5t-102.5 -39.5z" />
    <glyph glyph-name="agrave" unicode="&#xe0;" horiz-adv-x="419" 
d="M217 600l-94 134q3 15 24 15t41 -15l59 -134h-30zM212 -10q-82 0 -123.5 43t-41.5 115q0 100 68 144.5t183 58.5v31q0 62 -27.5 90.5t-74.5 28.5q-30 0 -58.5 -10t-47.5 -24l-15 42q22 17 54.5 28.5t71.5 11.5q66 0 109.5 -39t43.5 -128v-352q-27 -19 -62.5 -29.5
t-79.5 -10.5zM298 309q-101 -15 -147.5 -49t-46.5 -112q0 -57 29.5 -86.5t84.5 -29.5q24 0 45.5 5t34.5 13v259z" />
    <glyph glyph-name="aacute" unicode="&#xe1;" horiz-adv-x="419" 
d="M221 598h-31l58 134q20 15 42 15q20 0 23 -14zM212 -10q-82 0 -123.5 43t-41.5 115q0 100 68 144.5t183 58.5v31q0 62 -27.5 90.5t-74.5 28.5q-30 0 -58.5 -10t-47.5 -24l-15 42q22 17 54.5 28.5t71.5 11.5q66 0 109.5 -39t43.5 -128v-352q-27 -19 -62.5 -29.5
t-79.5 -10.5zM298 309q-101 -15 -147.5 -49t-46.5 -112q0 -57 29.5 -86.5t84.5 -29.5q24 0 45.5 5t34.5 13v259z" />
    <glyph glyph-name="acircumflex" unicode="&#xe2;" horiz-adv-x="419" 
d="M302 597l-89 76l-90 -76l-14 15l80 98q10 13 23 13q14 0 24 -13l80 -98zM212 -10q-82 0 -123.5 43t-41.5 115q0 100 68 144.5t183 58.5v31q0 62 -27.5 90.5t-74.5 28.5q-30 0 -58.5 -10t-47.5 -24l-15 42q22 17 54.5 28.5t71.5 11.5q66 0 109.5 -39t43.5 -128v-352
q-27 -19 -62.5 -29.5t-79.5 -10.5zM298 309q-101 -15 -147.5 -49t-46.5 -112q0 -57 29.5 -86.5t84.5 -29.5q24 0 45.5 5t34.5 13v259z" />
    <glyph glyph-name="atilde" unicode="&#xe3;" horiz-adv-x="419" 
d="M270 611q-22 -4 -54 17t-51 18q-16 -3 -25 -15t-14 -27l-27 32q7 23 18.5 36.5t35.5 17.5q21 3 56 -18t50 -18q16 3 25 15.5t13 27.5l29 -33q-5 -22 -17.5 -35t-38.5 -18zM212 -10q-82 0 -123.5 43t-41.5 115q0 100 68 144.5t183 58.5v31q0 62 -27.5 90.5t-74.5 28.5
q-30 0 -58.5 -10t-47.5 -24l-15 42q22 17 54.5 28.5t71.5 11.5q66 0 109.5 -39t43.5 -128v-352q-27 -19 -62.5 -29.5t-79.5 -10.5zM298 309q-101 -15 -147.5 -49t-46.5 -112q0 -57 29.5 -86.5t84.5 -29.5q24 0 45.5 5t34.5 13v259z" />
    <glyph glyph-name="adieresis" unicode="&#xe4;" horiz-adv-x="419" 
d="M284 613q-14 0 -25 11t-11 26t10 26t26 11q14 0 25 -11t11 -26t-10 -26t-26 -11zM146 613q-15 0 -26 11t-11 26q0 16 10.5 26.5t26.5 10.5q14 0 25 -11t11 -26t-10 -26t-26 -11zM212 -10q-82 0 -123.5 43t-41.5 115q0 100 68 144.5t183 58.5v31q0 62 -27.5 90.5
t-74.5 28.5q-30 0 -58.5 -10t-47.5 -24l-15 42q22 17 54.5 28.5t71.5 11.5q66 0 109.5 -39t43.5 -128v-352q-27 -19 -62.5 -29.5t-79.5 -10.5zM298 309q-101 -15 -147.5 -49t-46.5 -112q0 -57 29.5 -86.5t84.5 -29.5q24 0 45.5 5t34.5 13v259z" />
    <glyph glyph-name="aring" unicode="&#xe5;" horiz-adv-x="419" 
d="M215 600q-32 0 -54 22t-22 54t22 54t54 22t54 -22t22 -54t-22 -54t-54 -22zM212 -10q-82 0 -123.5 43t-41.5 115q0 100 68 144.5t183 58.5v31q0 62 -27.5 90.5t-74.5 28.5q-30 0 -58.5 -10t-47.5 -24l-15 42q22 17 54.5 28.5t71.5 11.5q66 0 109.5 -39t43.5 -128v-352
q-27 -19 -62.5 -29.5t-79.5 -10.5zM215 727q-21 0 -36 -15t-15 -36q0 -20 15 -35t36 -15t35.5 14.5t14.5 35.5t-14 36t-36 15zM298 309q-101 -15 -147.5 -49t-46.5 -112q0 -57 29.5 -86.5t84.5 -29.5q24 0 45.5 5t34.5 13v259z" />
    <glyph glyph-name="ae" unicode="&#xe6;" horiz-adv-x="684" 
d="M350 250q0 -104 38 -156.5t104 -52.5q38 0 67 11t47 25l17 -47q-18 -16 -55.5 -28t-77.5 -12q-52 0 -93 25t-62 69q-16 -45 -49.5 -69.5t-82.5 -24.5q-79 0 -117.5 43t-38.5 116q0 97 59.5 143t193.5 59v31q0 60 -30 89.5t-79 29.5q-30 0 -55.5 -10t-43.5 -24l-14 42
q20 17 52 28.5t70 11.5q48 0 83 -20.5t54 -71.5q21 45 55.5 68.5t75.5 23.5q81 0 124.5 -65t43.5 -199zM467 499q-51 0 -84.5 -52.5t-33.5 -153.5l224 29q0 89 -27.5 133t-78.5 44zM300 308q-110 -12 -153.5 -46t-43.5 -114q0 -56 27 -85t75 -29q38 0 66.5 32t28.5 81v161z
" />
    <glyph glyph-name="ccedilla" unicode="&#xe7;" horiz-adv-x="359" 
d="M222 -10q-80 0 -125.5 73.5t-45.5 205.5q0 131 47 205.5t126 74.5q38 0 62.5 -10.5t41.5 -29.5l-15 -41q-13 14 -34 23t-47 9q-61 0 -90.5 -62t-29.5 -165q0 -104 31 -167.5t87 -63.5q27 0 47.5 8.5t34.5 23.5l16 -44q-14 -17 -41.5 -28.5t-64.5 -11.5zM107 -168l14 26
q7 -1 13.5 -1h13.5q36 0 61.5 10.5t25.5 26.5t-17.5 22.5t-63.5 6.5l13 26q8 1 17 1h14q87 0 87 -54q0 -32 -37.5 -50t-92.5 -18q-27 0 -48 4z" />
    <glyph glyph-name="egrave" unicode="&#xe8;" horiz-adv-x="444" 
d="M222 600l-94 134q3 15 24 15t41 -15l59 -134h-30zM108 250q0 -99 39 -153.5t104 -54.5q38 0 67 10t47 25l17 -47q-19 -17 -54 -28.5t-78 -11.5q-89 0 -144 69t-55 212q0 135 49 206.5t128 71.5q80 0 124 -65t44 -199zM227 499q-52 0 -86 -54t-34 -152l226 29
q0 89 -27.5 133t-78.5 44z" />
    <glyph glyph-name="eacute" unicode="&#xe9;" horiz-adv-x="444" 
d="M236 598h-31l58 134q20 15 42 15q20 0 23 -14zM108 250q0 -99 39 -153.5t104 -54.5q38 0 67 10t47 25l17 -47q-19 -17 -54 -28.5t-78 -11.5q-89 0 -144 69t-55 212q0 135 49 206.5t128 71.5q80 0 124 -65t44 -199zM227 499q-52 0 -86 -54t-34 -152l226 29q0 89 -27.5 133
t-78.5 44z" />
    <glyph glyph-name="ecircumflex" unicode="&#xea;" horiz-adv-x="444" 
d="M319 597l-89 76l-90 -76l-14 15l80 98q10 13 23 13q14 0 24 -13l80 -98zM108 250q0 -99 39 -153.5t104 -54.5q38 0 67 10t47 25l17 -47q-19 -17 -54 -28.5t-78 -11.5q-89 0 -144 69t-55 212q0 135 49 206.5t128 71.5q80 0 124 -65t44 -199zM227 499q-52 0 -86 -54
t-34 -152l226 29q0 89 -27.5 133t-78.5 44z" />
    <glyph glyph-name="edieresis" unicode="&#xeb;" horiz-adv-x="444" 
d="M300 613q-14 0 -25 11t-11 26t10 26t26 11q14 0 25 -11t11 -26t-10 -26t-26 -11zM162 613q-15 0 -26 11t-11 26q0 16 10.5 26.5t26.5 10.5q14 0 25 -11t11 -26t-10 -26t-26 -11zM108 250q0 -99 39 -153.5t104 -54.5q38 0 67 10t47 25l17 -47q-19 -17 -54 -28.5t-78 -11.5
q-89 0 -144 69t-55 212q0 135 49 206.5t128 71.5q80 0 124 -65t44 -199zM227 499q-52 0 -86 -54t-34 -152l226 29q0 89 -27.5 133t-78.5 44z" />
    <glyph glyph-name="igrave" unicode="&#xec;" horiz-adv-x="199" 
d="M107 600l-94 134q3 15 24 15t41 -15l59 -134h-30zM77 0v539h59v-539h-59z" />
    <glyph glyph-name="iacute" unicode="&#xed;" horiz-adv-x="198" 
d="M93 598h-31l58 134q20 15 42 15q20 0 23 -14zM68 0v539h60v-539h-60z" />
    <glyph glyph-name="icircumflex" unicode="&#xee;" horiz-adv-x="202" 
d="M191 597l-90 76l-89 -76l-14 15l80 98q10 13 23 13q14 0 24 -13l80 -98zM73 0v539h59v-539h-59z" />
    <glyph glyph-name="idieresis" unicode="&#xef;" horiz-adv-x="219" 
d="M179 613q-15 0 -26 11t-11 26t11 26t26 11q14 0 25 -11t11 -26t-10 -26t-26 -11zM40 613q-14 0 -25 11t-11 26t10 26t26 11q15 0 26 -11t11 -26t-11 -26t-26 -11zM80 0v539h59v-539h-59z" />
    <glyph glyph-name="ntilde" unicode="&#xf1;" horiz-adv-x="443" 
d="M275 611q-22 -4 -54.5 17t-51.5 18q-15 -3 -24 -15t-15 -27l-27 32q7 23 18.5 36.5t35.5 17.5q23 3 56.5 -18t49.5 -18q15 3 24.5 15.5t14.5 27.5l29 -33q-6 -23 -18 -35.5t-38 -17.5zM318 0v395q0 108 -100 108q-34 0 -53 -4.5t-40 -14.5v-484h-60v509q30 20 69 30
t93 10q69 0 110 -36.5t41 -117.5v-395h-60z" />
    <glyph glyph-name="ograve" unicode="&#xf2;" horiz-adv-x="445" 
d="M220 600l-94 134q3 15 24 15t41 -15l59 -134h-30zM223 -10q-89 0 -130.5 77t-41.5 202q0 126 41.5 203t129.5 77q89 0 130.5 -76.5t41.5 -203.5q0 -124 -41.5 -201.5t-129.5 -77.5zM223 507q-62 0 -87 -68t-25 -170q0 -100 25 -165.5t87 -65.5q63 0 87 64.5t24 166.5
t-24 170t-87 68z" />
    <glyph glyph-name="oacute" unicode="&#xf3;" horiz-adv-x="445" 
d="M229 598h-32l59 134q20 15 42 15q20 0 23 -14zM223 -10q-89 0 -130.5 77t-41.5 202q0 126 41.5 203t129.5 77q89 0 130.5 -76.5t41.5 -203.5q0 -124 -41.5 -201.5t-129.5 -77.5zM223 507q-62 0 -87 -68t-25 -170q0 -100 25 -165.5t87 -65.5q63 0 87 64.5t24 166.5
t-24 170t-87 68z" />
    <glyph glyph-name="ocircumflex" unicode="&#xf4;" horiz-adv-x="445" 
d="M313 597l-89 76l-90 -76l-14 15l80 98q10 13 23 13q14 0 24 -13l80 -98zM223 -10q-89 0 -130.5 77t-41.5 202q0 126 41.5 203t129.5 77q89 0 130.5 -76.5t41.5 -203.5q0 -124 -41.5 -201.5t-129.5 -77.5zM223 507q-62 0 -87 -68t-25 -170q0 -100 25 -165.5t87 -65.5
q63 0 87 64.5t24 166.5t-24 170t-87 68z" />
    <glyph glyph-name="otilde" unicode="&#xf5;" horiz-adv-x="445" 
d="M278 611q-22 -4 -54 17t-51 18q-16 -3 -25 -14.5t-15 -27.5l-27 32q9 25 19.5 37.5t34.5 16.5q23 3 56.5 -18t49.5 -18t25.5 15.5t13.5 27.5l29 -33q-6 -22 -18 -35t-38 -18zM223 -10q-89 0 -130.5 77t-41.5 202q0 126 41.5 203t129.5 77q89 0 130.5 -76.5t41.5 -203.5
q0 -124 -41.5 -201.5t-129.5 -77.5zM223 507q-62 0 -87 -68t-25 -170q0 -100 25 -165.5t87 -65.5q63 0 87 64.5t24 166.5t-24 170t-87 68z" />
    <glyph glyph-name="odieresis" unicode="&#xf6;" horiz-adv-x="445" 
d="M292 614q-14 0 -25 11t-11 26t10 26t26 11q14 0 25 -11t11 -26t-10 -26t-26 -11zM153 614q-14 0 -25 11t-11 26t10 26t26 11q15 0 26 -11t11 -26t-11 -26t-26 -11zM223 -10q-89 0 -130.5 77t-41.5 202q0 126 41.5 203t129.5 77q89 0 130.5 -76.5t41.5 -203.5
q0 -124 -41.5 -201.5t-129.5 -77.5zM223 507q-62 0 -87 -68t-25 -170q0 -100 25 -165.5t87 -65.5q63 0 87 64.5t24 166.5t-24 170t-87 68z" />
    <glyph glyph-name="divide" unicode="&#xf7;" 
d="M223 451q-20 0 -33.5 13.5t-13.5 32.5q0 20 13.5 33.5t33.5 13.5q19 0 32.5 -13.5t13.5 -32.5q0 -20 -13.5 -33.5t-32.5 -13.5zM61 310v48h324v-48h-324zM223 125q-19 0 -32.5 13.5t-13.5 33.5t13.5 33.5t32.5 13.5q20 0 33.5 -13.5t13.5 -33.5t-13.5 -33.5t-33.5 -13.5z
" />
    <glyph glyph-name="oslash" unicode="&#xf8;" horiz-adv-x="451" 
d="M226 -10q-58 0 -102 40l-48 -99l-21 10l52 109q-28 40 -40.5 94.5t-12.5 124.5q0 126 42 203t130 77q58 0 102 -40l47 97l21 -10l-52 -107q28 -39 40.5 -94.5t12.5 -125.5q0 -124 -41.5 -201.5t-129.5 -77.5zM226 513q-72 0 -97 -73t-25 -171q0 -52 5 -89.5t22 -80.5
l178 370q-14 19 -36 31.5t-47 12.5zM322 444l-177 -369q30 -41 81 -41q70 0 95.5 69t25.5 166q0 50 -5 92t-20 83z" />
    <glyph glyph-name="ugrave" unicode="&#xf9;" horiz-adv-x="437" 
d="M217 600l-94 134q3 15 24 15t41 -15l59 -134h-30zM219 -11q-154 0 -154 173v377h60v-384q0 -57 26.5 -87.5t72.5 -30.5q30 0 49.5 5.5t38.5 18.5v478h60v-504q-27 -20 -64.5 -33t-88.5 -13z" />
    <glyph glyph-name="uacute" unicode="&#xfa;" horiz-adv-x="437" 
d="M219 598h-32l59 134q20 15 42 15q20 0 23 -14zM219 -11q-154 0 -154 173v377h60v-384q0 -57 26.5 -87.5t72.5 -30.5q30 0 49.5 5.5t38.5 18.5v478h60v-504q-27 -20 -64.5 -33t-88.5 -13z" />
    <glyph glyph-name="ucircumflex" unicode="&#xfb;" horiz-adv-x="437" 
d="M308 597l-89 76l-90 -76l-14 15l80 98q10 13 23 13q14 0 24 -13l80 -98zM219 -11q-154 0 -154 173v377h60v-384q0 -57 26.5 -87.5t72.5 -30.5q30 0 49.5 5.5t38.5 18.5v478h60v-504q-27 -20 -64.5 -33t-88.5 -13z" />
    <glyph glyph-name="udieresis" unicode="&#xfc;" horiz-adv-x="437" 
d="M288 613q-14 0 -25 11t-11 26t10 26t26 11q14 0 25 -11t11 -26t-10 -26t-26 -11zM149 613q-14 0 -25 11t-11 26t10 26t26 11q15 0 26 -11t11 -26t-11 -26t-26 -11zM219 -11q-154 0 -154 173v377h60v-384q0 -57 26.5 -87.5t72.5 -30.5q30 0 49.5 5.5t38.5 18.5v478h60
v-504q-27 -20 -64.5 -33t-88.5 -13z" />
    <glyph glyph-name="ydieresis" unicode="&#xff;" horiz-adv-x="422" 
d="M284 612q-16 0 -26.5 10.5t-10.5 25.5q0 16 10.5 26.5t26.5 10.5q15 0 25.5 -10.5t10.5 -26.5q0 -15 -10.5 -25.5t-25.5 -10.5zM145 612q-15 0 -25.5 10.5t-10.5 25.5q0 16 10.5 26.5t25.5 10.5t25.5 -10.5t10.5 -26.5q0 -15 -10.5 -25.5t-25.5 -10.5zM160 -215h-62
l79 215l-144 539h64l105 -459l130 459h59z" />
    <glyph glyph-name="dotlessi" unicode="&#x131;" horiz-adv-x="194" 
d="M67 0v539h60v-539h-60z" />
    <glyph glyph-name="OE" unicode="&#x152;" horiz-adv-x="675" 
d="M358 0q-26 -10 -69 -10q-116 0 -174 99.5t-58 254.5t58 254.5t174 99.5q21 0 37.5 -2t31.5 -8h274v-50h-204v-256h186v-51h-186v-281h204v-50h-274zM366 633q-29 19 -77 19q-92 0 -129 -93.5t-37 -214.5q0 -119 36.5 -211t129.5 -92q30 0 46 2t31 10v580z" />
    <glyph glyph-name="oe" unicode="&#x153;" horiz-adv-x="719" 
d="M385 250q0 -121 45.5 -166t99.5 -45q42 0 70.5 9t50.5 26l14 -44q-21 -18 -54.5 -29t-83.5 -11q-56 0 -95.5 26t-69.5 88q-21 -57 -54 -85.5t-85 -28.5q-87 0 -129.5 78t-42.5 201q0 126 42 203t130 77q50 0 83.5 -27.5t54.5 -81.5q25 56 60.5 82.5t81.5 26.5
q82 0 125 -62.5t43 -201.5zM502 504q-52 0 -85 -52.5t-33 -154.5l226 28q0 89 -28.5 134t-79.5 45zM223 504q-64 0 -88 -70.5t-24 -164.5q0 -120 32 -175.5t80 -55.5q65 0 88 69t23 162q0 100 -21.5 167.5t-89.5 67.5z" />
    <glyph glyph-name="Ydieresis" unicode="&#x178;" horiz-adv-x="423" 
d="M284 751q-14 0 -25 11t-11 26q0 16 10.5 26.5t25.5 10.5q16 0 26.5 -10.5t10.5 -26.5t-10.5 -26.5t-26.5 -10.5zM146 751q-14 0 -25 11t-11 26q0 16 10.5 26.5t25.5 10.5t25.5 -10.5t10.5 -26.5q0 -15 -10 -26t-26 -11zM244 312v-312h-64v312l-163 376h71l126 -321
l130 321h62z" />
    <glyph glyph-name="florin" unicode="&#x192;" horiz-adv-x="467" 
d="M420 639q-20 9 -48 9q-31 0 -50.5 -33t-37.5 -139l-11 -64h93v-41h-99l-58 -364q-15 -96 -47.5 -162.5t-103.5 -66.5q-30 0 -45 10l6 48q16 -7 35 -7q39 0 60.5 47t38.5 152l55 343h-92v41h98l11 70q17 107 47 161t98 54q19 0 33 -3.5t25 -9.5z" />
    <glyph glyph-name="hungarumlaut" unicode="&#x2ba;" horiz-adv-x="153" 
d="M94 598h-27l85 126q14 14 42 14q21 0 21 -13zM-9 598h-27l85 126q14 14 42 14q21 0 21 -13z" />
    <glyph glyph-name="caron" unicode="&#x2c7;" horiz-adv-x="153" 
d="M100 610q-10 -13 -24 -13q-13 0 -23 13l-80 98l14 15l89 -75l90 75l14 -15z" />
    <glyph glyph-name="macron" unicode="&#x2c9;" horiz-adv-x="153" 
d="M-34 624v44h221v-44h-221z" />
    <glyph glyph-name="breve" unicode="&#x2d8;" horiz-adv-x="153" 
d="M76 600q-50 0 -76.5 35.5t-26.5 72.5l20 11q9 -33 32 -53t50 -20q30 0 53.5 19.5t31.5 53.5l20 -11q0 -39 -26.5 -73.5t-77.5 -34.5z" />
    <glyph glyph-name="dotaccent" unicode="&#x2d9;" horiz-adv-x="153" 
d="M76 633q-16 0 -27 11t-11 27q0 17 11 28t27 11t27.5 -11.5t11.5 -27.5t-11 -27t-28 -11z" />
    <glyph glyph-name="ring" unicode="&#x2da;" horiz-adv-x="153" 
d="M76 600q-32 0 -54 22t-22 54t22 54t54 22t54 -22t22 -54t-22 -54t-54 -22zM76 727q-21 0 -36 -15t-15 -36q0 -20 15 -35t36 -15t36 14t15 36q0 21 -15 36t-36 15z" />
    <glyph glyph-name="ogonek" unicode="&#x2db;" horiz-adv-x="153" 
d="M47 -117q0 37 17 61.5t70 57.5h42q-37 -20 -58 -48t-21 -54q0 -32 43 -32q22 0 51 12l5 -27q-41 -20 -81 -20q-31 0 -49.5 13t-18.5 37z" />
    <glyph glyph-name="circumflex" unicode="&#x302;" horiz-adv-x="153" 
d="M166 597l-90 76l-89 -76l-14 15l80 98q10 13 23 13q14 0 24 -13l80 -98z" />
    <glyph glyph-name="tilde" unicode="&#x303;" horiz-adv-x="153" 
d="M135 611q-22 -4 -54.5 17t-51.5 18q-15 -3 -24 -15t-15 -27l-27 32q7 23 18.5 36.5t35.5 17.5q23 3 56.5 -18t49.5 -18q15 3 24.5 15.5t14.5 27.5l29 -33q-6 -23 -18 -35.5t-38 -17.5z" />
    <glyph glyph-name="summation" unicode="&#x3a3;" horiz-adv-x="450" 
d="M55 -215l203 490l-205 413h347v-50h-250l173 -353l-182 -444h266v-56h-352z" />
    <glyph glyph-name="Omega" unicode="&#x3a9;" horiz-adv-x="553" 
d="M295 0q65 62 101 165.5t36 215.5q0 122 -36.5 194.5t-118.5 72.5t-119 -73t-37 -194q0 -113 35 -214.5t101 -166.5h-210v50h113q-42 55 -72.5 148t-30.5 182q0 147 56 232.5t163 85.5t163.5 -85t56.5 -233q0 -88 -30 -181t-72 -149h112v-50h-211z" />
    <glyph glyph-name="pi" unicode="&#x3c0;" horiz-adv-x="531" 
d="M362 147v345h-193v-492h-60v492h-62v47h437v-47h-62v-347q0 -54 16 -77t46 -23v-45q-70 0 -96 37t-26 110z" />
    <glyph glyph-name="endash" unicode="&#x2013;" horiz-adv-x="324" 
d="M0 310v48h324v-47z" />
    <glyph glyph-name="emdash" unicode="&#x2014;" horiz-adv-x="648" 
d="M0 314v40h648v-40h-648z" />
    <glyph glyph-name="quoteleft" unicode="&#x2018;" horiz-adv-x="237" 
d="M121 550q-6 -12 -19 -19.5t-29 -7.5q-27 0 -30 25l118 237h33z" />
    <glyph glyph-name="quoteright" unicode="&#x2019;" horiz-adv-x="237" 
d="M76 527h-33l73 235q6 12 19 19.5t29 7.5q27 0 30 -25z" />
    <glyph glyph-name="quotesinglbase" unicode="&#x201a;" horiz-adv-x="237" 
d="M76 -172h-33l73 236q13 26 48 26q27 0 30 -25z" />
    <glyph glyph-name="quotedblleft" unicode="&#x201c;" horiz-adv-x="472" 
d="M316 550q-6 -12 -19 -19.5t-29 -7.5q-27 0 -30 25l118 237h33zM161 550q-6 -12 -19 -19.5t-29 -7.5q-27 0 -30 25l118 237h33z" />
    <glyph glyph-name="quotedblright" unicode="&#x201d;" horiz-adv-x="472" 
d="M271 526h-33l73 236q13 26 48 26q27 0 30 -24zM116 526h-33l73 236q13 26 48 26q27 0 30 -24z" />
    <glyph glyph-name="quotedblbase" unicode="&#x201e;" horiz-adv-x="472" 
d="M271 -172h-33l73 236q13 26 48 26q27 0 30 -25zM116 -172h-33l73 236q13 26 48 26q27 0 30 -25z" />
    <glyph glyph-name="dagger" unicode="&#x2020;" horiz-adv-x="460" 
d="M253 486l7 -701h-60l6 701l-157 -6v59l157 -6l-6 252h60l-7 -252l158 6v-59z" />
    <glyph glyph-name="daggerdbl" unicode="&#x2021;" horiz-adv-x="460" 
d="M253 62l7 -277h-60l6 277l-157 -6v59l157 -6l-1 187l1 194l-157 -6v59l157 -6l-6 248h60l-7 -248l158 6v-59l-158 6l2 -194l-2 -187l158 6v-59z" />
    <glyph glyph-name="bullet" unicode="&#x2022;" horiz-adv-x="333" 
d="M167 260q-39 0 -66.5 27.5t-27.5 66.5t27 66t67 27q38 0 65.5 -26.5t27.5 -66.5q0 -39 -27.5 -66.5t-65.5 -27.5z" />
    <glyph glyph-name="ellipsis" unicode="&#x2026;" horiz-adv-x="810" 
d="M675 -7q-19 0 -32.5 13.5t-13.5 33.5t13 34t33 14t33 -14t13 -34q0 -19 -13 -33t-33 -14zM405 -7q-19 0 -32.5 13.5t-13.5 33.5t13 34t33 14t33 -14t13 -34q0 -19 -13 -33t-33 -14zM135 -7q-19 0 -32.5 13.5t-13.5 33.5t13 34t33 14t33 -14t13 -34q0 -19 -13 -33t-33 -14
z" />
    <glyph glyph-name="perthousand" unicode="&#x2030;" horiz-adv-x="965" 
d="M804 -10q-62 0 -85.5 69t-23.5 167q0 130 30 182.5t79 52.5q62 0 85 -68.5t23 -166.5q0 -130 -30 -183t-78 -53zM525 -10q-62 0 -85.5 69t-23.5 167q0 130 30 182.5t79 52.5q62 0 85.5 -68t23.5 -167q0 -98 -23.5 -167t-85.5 -69zM262 -5l-35 10l195 688l36 -10zM162 227
q-62 0 -85.5 69t-23.5 167q0 130 30 182.5t79 52.5q62 0 85.5 -68t23.5 -167q0 -98 -23.5 -167t-85.5 -69zM804 431q-41 0 -54 -59t-13 -146q0 -86 13 -144t54 -58q48 0 57 71.5t9 130.5q0 86 -12.5 145.5t-53.5 59.5zM525 431q-40 0 -53.5 -60.5t-13.5 -144.5
q0 -86 13 -144t54 -58q48 0 57.5 75t9.5 127q0 87 -13 146t-54 59zM162 668q-40 0 -53.5 -60.5t-13.5 -144.5q0 -85 13 -143t54 -58q48 0 57.5 74t9.5 127q0 87 -13 146t-54 59z" />
    <glyph glyph-name="guilsinglleft" unicode="&#x2039;" horiz-adv-x="251" 
d="M171 124l-131 210l131 210l30 -27l-111 -183l111 -183z" />
    <glyph glyph-name="guilsinglright" unicode="&#x203a;" horiz-adv-x="251" 
d="M81 124l-31 27l112 183l-112 183l31 27l130 -210z" />
    <glyph glyph-name="trademark" unicode="&#x2122;" horiz-adv-x="678" 
d="M563 355l-30 301l-79 -301h-37l-79 301l-29 -301h-37l36 333h54l74 -285l74 285h55l36 -333h-38zM169 654v-299h-38v299h-83v34h203v-34h-82z" />
    <glyph glyph-name="partialdiff" unicode="&#x2202;" horiz-adv-x="455" 
d="M190 -9q-70 0 -106.5 49t-36.5 123q0 99 59 174.5t154 75.5q40 0 84 -16q0 87 -55.5 155.5t-126.5 98.5l20 44q87 -31 156.5 -119.5t69.5 -244.5q0 -140 -55.5 -240t-162.5 -100zM109 169q0 -62 21 -95.5t65 -33.5q73 0 112.5 89t39.5 223q-39 14 -77 14
q-74 0 -117.5 -56t-43.5 -141z" />
    <glyph glyph-name="Delta" unicode="&#x2206;" horiz-adv-x="507" 
d="M25 0l202 688h51l204 -688h-457zM274 520q-4 16 -10.5 47.5t-10.5 45.5q-3 -12 -5.5 -25t-17.5 -67l-130 -474h301z" />
    <glyph glyph-name="product" unicode="&#x220f;" horiz-adv-x="820" 
d="M410 -9q-146 0 -249.5 102.5t-103.5 249.5t103 250t250 103t250 -103t103 -250q0 -146 -103 -249t-250 -103zM410 662q-132 0 -225.5 -93.5t-93.5 -225.5t93 -225t226 -93q131 0 225 93t94 225t-93.5 225.5t-225.5 93.5zM351 317v-212h-41v458q42 21 103 21q56 0 99 -33
t43 -105q0 -65 -42.5 -98.5t-117.5 -33.5q-21 0 -44 3zM407 550q-14 0 -28 -2.5t-28 -7.5v-191q20 -3 38 -3q59 0 92 25.5t33 75.5q0 55 -32.5 79t-74.5 24z" />
    <glyph glyph-name="fraction" unicode="&#x2215;" horiz-adv-x="91" 
d="M-75 -9l-42 18l283 688l42 -17z" />
    <glyph glyph-name="periodcentered" unicode="&#x2219;" horiz-adv-x="199" 
d="M100 287q-20 0 -33.5 13.5t-13.5 33.5t13.5 33.5t32.5 13.5q20 0 33.5 -13.5t13.5 -33.5t-13.5 -33.5t-32.5 -13.5z" />
    <glyph glyph-name="radical" unicode="&#x221a;" 
d="M280 0h-59l-137 470h-66v38h122l106 -418l129 695h58z" />
    <glyph glyph-name="infinity" unicode="&#x221e;" horiz-adv-x="723" 
d="M522 203q-52 0 -83 22.5t-80 82.5q-45 -56 -79.5 -80.5t-80.5 -24.5q-60 0 -98 40t-38 97q0 56 38.5 96.5t97.5 40.5q47 0 82.5 -22t81.5 -76q43 54 76.5 76t84.5 22q57 0 96.5 -40.5t39.5 -99.5t-40.5 -96.5t-97.5 -37.5zM525 425q-39 0 -69.5 -18.5t-64.5 -61.5
q38 -49 66 -70t65 -21q40 0 68 22.5t28 61.5q0 35 -27 61t-66 26zM199 425q-41 0 -68 -23.5t-27 -61.5q0 -36 27 -61t67 -25q38 0 66.5 19t67.5 69q-40 46 -69 64.5t-64 18.5z" />
    <glyph glyph-name="integral" unicode="&#x222b;" horiz-adv-x="316" 
d="M187 629v-679q0 -76 -37 -120.5t-107 -44.5v46q36 0 61 27.5t25 82.5v679q0 76 37 120.5t107 44.5v-46q-36 0 -61 -27.5t-25 -82.5z" />
    <glyph glyph-name="approxequal" unicode="&#x2248;" 
d="M293 366q-28 0 -72 20.5t-74 20.5q-25 0 -47.5 -9.5t-38.5 -24.5v46q14 13 37.5 23.5t48.5 10.5q31 0 74 -20.5t71 -20.5t53 10.5t40 27.5v-46q-13 -17 -37.5 -27.5t-54.5 -10.5zM293 212q-28 0 -72 20.5t-74 20.5q-25 0 -47.5 -9.5t-38.5 -24.5v46q14 13 37.5 23.5
t48.5 10.5q31 0 74 -20.5t71 -20.5t53 10.5t40 27.5v-46q-13 -17 -37.5 -27.5t-54.5 -10.5z" />
    <glyph glyph-name="notequal" unicode="&#x2260;" 
d="M198 234l-60 -118l-41 21l49 97h-85v46h108l55 108h-163v46h186l59 116l41 -21l-48 -95h86v-46h-109l-55 -108h164v-46h-187z" />
    <glyph glyph-name="lessequal" unicode="&#x2264;" 
d="M61 310v48h324v-48h-324z" />
    <glyph glyph-name="greaterequal" unicode="&#x2265;" 
d="M354 122l-131 170l-131 -170l-42 29l141 183l-141 184l42 29l131 -170l131 170l42 -29l-141 -184l141 -183z" />
    <glyph glyph-name="lozenge" unicode="&#x25ca;" horiz-adv-x="563" 
d="M282 0l-233 344l232 344l233 -344zM276 591l-161 -239l173 -255l161 239z" />
    <glyph glyph-name="fi" unicode="&#xf001;" horiz-adv-x="434" 
d="M334 653q-16 0 -27 11t-11 27q0 17 11 28t27 11t27.5 -11.5t11.5 -27.5t-11 -27t-28 -11zM304 0v539h60v-539h-60zM149 498v-498h-58v498h-49v41h49v81q0 76 37 120.5t107 44.5v-46q-36 0 -61 -27.5t-25 -82.5v-90h86v-41h-86z" />
    <glyph glyph-name="fl" unicode="&#xf002;" horiz-adv-x="436" 
d="M304 0v785h60v-785h-60zM149 498v-498h-58v498h-49v41h49v81q0 76 37 120.5t107 44.5v-46q-36 0 -61 -27.5t-25 -82.5v-90h86v-41h-86z" />
    <glyph glyph-name="Lslash" horiz-adv-x="357" 
d="M87 0v421l-56 -35v47l56 34v221h64v-188l62 38v-45l-62 -38v-405h185v-50h-249z" />
    <glyph glyph-name="lslash" horiz-adv-x="239" 
d="M150 455v-455h-60v424l-62 -40v48l62 37v316h60v-285l62 38v-45z" />
    <glyph glyph-name="Scaron" horiz-adv-x="402" 
d="M223 750q-10 -13 -24 -13q-13 0 -23 13l-80 98l14 15l90 -75l89 75l14 -15zM179 -10q-47 0 -78 9.5t-57 30.5l19 53q20 -16 46 -26t64 -10q49 0 81 30t32 83t-25 88t-87.5 83t-92.5 94.5t-30 102.5q0 76 46 123t114 47q40 0 68.5 -10.5t47.5 -29.5l-17 -46
q-16 13 -41 23.5t-56 10.5q-47 0 -73.5 -28.5t-26.5 -79.5q0 -48 25 -83.5t87.5 -83.5t94.5 -93.5t32 -105.5q0 -82 -47 -132t-126 -50z" />
    <glyph glyph-name="scaron" horiz-adv-x="346" 
d="M198 610q-10 -13 -24 -13q-13 0 -23 13l-80 98l14 15l89 -75l90 75l14 -15zM156 -10q-39 0 -68 9.5t-51 30.5l17 49q16 -16 40.5 -26t57.5 -10q36 0 61.5 23.5t25.5 61.5q0 43 -18.5 67.5t-73.5 64t-77.5 77.5t-22.5 77q0 57 36 96t93 39q70 0 108 -40l-17 -43
q-16 16 -37.5 25t-49.5 9q-30 0 -52 -23t-22 -55q0 -30 16 -56t71 -65.5t82.5 -75.5t27.5 -94t-43.5 -99.5t-103.5 -41.5z" />
    <glyph glyph-name="Zcaron" horiz-adv-x="381" 
d="M211 750q-9 -13 -23 -13t-24 13l-80 98l15 15l89 -75l89 75l14 -15zM30 0l228 638h-215v50h300l-228 -638h231v-50h-316z" />
    <glyph glyph-name="zcaron" horiz-adv-x="347" 
d="M195 610q-10 -13 -24 -13q-13 0 -23 13l-80 98l14 15l89 -75l90 75l14 -15zM24 0l209 498h-191v41h271l-206 -497h210v-42h-293z" />
    <glyph glyph-name="brokenbar" horiz-adv-x="196" 
d="M73 325v350h50v-350h-50zM73 -175v350h50v-350h-50z" />
    <glyph glyph-name="Eth" horiz-adv-x="534" 
d="M247 -10q-103 0 -154 40v324l-54 -1v41h54v264q25 19 64.5 29.5t85.5 10.5q110 0 172 -91t62 -254q0 -159 -57 -261t-173 -102zM233 651q-50 0 -75 -11v-246h111v-40h-111v-297q12 -7 32.5 -10t45.5 -3q77 0 126 72t49 237q0 145 -45.5 221.5t-132.5 76.5z" />
    <glyph glyph-name="glyph233" horiz-adv-x="435" 
d="M219 -12q-83 0 -127.5 75t-44.5 203q0 117 39 198.5t133 81.5q33 0 59 -8q-27 78 -59 140l-74 -26l-18 31l75 27q-20 37 -42 66l51 19q20 -28 42 -66l64 23l18 -31l-65 -24q50 -95 82.5 -209.5t32.5 -221.5q0 -127 -39 -202.5t-127 -75.5zM291 496q-22 6 -33.5 7.5
t-31.5 1.5q-67 0 -93 -66.5t-26 -172.5q0 -101 26.5 -165.5t86.5 -64.5q59 0 82 65t23 168q0 55 -8.5 111.5t-25.5 115.5z" />
    <glyph glyph-name="Yacute" horiz-adv-x="422" 
d="M214 738h-31l58 134q20 15 42 15q20 0 23 -14zM244 312v-312h-65v312l-162 376h71l126 -321l129 321h62z" />
    <glyph glyph-name="yacute" horiz-adv-x="422" 
d="M209 598h-31l59 134q20 15 42 15q20 0 23 -14zM160 -215h-62l79 215l-144 539h64l105 -459l130 459h59z" />
    <glyph glyph-name="Thorn" horiz-adv-x="438" 
d="M159 172l-20 1v-173h-64v688h64v-124q15 5 29 8.5t41 3.5q90 0 139.5 -56.5t49.5 -150.5t-59.5 -145.5t-179.5 -51.5zM204 531q-37 0 -65 -10v-300l20 -2q7 -1 13.5 -1h13.5q75 0 112 41t37 104q0 81 -36 124.5t-95 43.5z" />
    <glyph glyph-name="thorn" horiz-adv-x="439" 
d="M186 -8q-34 0 -64 10v-217h-60v1000h59v-256q11 7 32.5 13t41.5 6q95 0 144.5 -73t49.5 -197q0 -134 -56.5 -210t-146.5 -76zM191 505q-41 0 -69 -18v-441q15 -4 31 -7t26 -3q78 0 114 68.5t36 167.5q0 107 -33 170t-105 63z" />
    <glyph glyph-name="minus" 
d="M61 383v50l324 137v-53l-281 -109l281 -109v-53zM61 118v48h324v-48h-324z" />
    <glyph glyph-name="multiply" 
d="M61 246v53l281 109l-281 109v53l324 -137v-50zM61 118v48h324v-48h-324z" />
    <glyph glyph-name="onesuperior" horiz-adv-x="312" 
d="M165 269v348q-18 -7 -43 -12t-55 -8l-4 26q40 5 72.5 23.5t44.5 41.5h31v-419h-46z" />
    <glyph glyph-name="twosuperior" horiz-adv-x="312" 
d="M37 270l142 216q20 31 27.5 51.5t7.5 43.5q0 35 -18.5 55t-57.5 20q-21 0 -34.5 -4.5t-29.5 -13.5l-17 31q18 13 41 19.5t52 6.5q48 0 80 -28.5t32 -82.5q0 -47 -47 -115l-107 -159h155v-40h-226z" />
    <glyph glyph-name="threesuperior" horiz-adv-x="312" 
d="M141 263q-62 0 -98 26l16 34q11 -9 32 -15.5t44 -6.5q36 0 59 26t23 64q0 43 -29.5 68.5t-82.5 25.5v30q44 0 71.5 22t27.5 56q0 27 -17 45t-48 18q-19 0 -34 -4.5t-28 -13.5l-17 29q18 14 39 20.5t49 6.5q47 0 74.5 -26.5t27.5 -69.5q0 -37 -17 -59.5t-42 -33.5
q29 -12 50.5 -40.5t21.5 -73.5q0 -52 -35 -90t-87 -38z" />
    <glyph glyph-name="onehalf" horiz-adv-x="666" 
d="M397 0l142 216q19 29 26.5 51.5t7.5 43.5q0 34 -19 54.5t-57 20.5q-19 0 -34 -5.5t-29 -13.5l-17 32q18 13 41 19.5t52 6.5q48 0 80 -28.5t32 -82.5q0 -23 -11 -51t-36 -65l-107 -159h155v-39h-226zM196 -9l-41 18l283 688l41 -17zM146 269v348q-19 -7 -44.5 -12
t-54.5 -8l-4 26q40 5 73 24t44 41h31v-419h-45z" />
    <glyph glyph-name="onequarter" horiz-adv-x="666" 
d="M592 97v-97h-43v97h-152v35l155 287h40v-287h31v-35h-31zM223 -9l-41 18l283 688l41 -17zM146 269v348q-19 -7 -44.5 -12t-54.5 -8l-4 26q40 5 73 24t44 41h31v-419h-45zM533 314l-97 -182h112v184q0 20 0.5 25t2.5 10q-3 -7 -6.5 -14.5t-11.5 -22.5z" />
    <glyph glyph-name="threequarters" horiz-adv-x="666" 
d="M592 97v-97h-43v97h-152v35l155 287h40v-287h31v-35h-31zM245 -9l-42 18l283 688l42 -17zM141 263q-62 0 -98 26l16 34q11 -9 32 -15.5t44 -6.5q35 0 58 26t23 64q0 43 -29.5 68.5t-81.5 25.5v30q44 0 71.5 22t27.5 56q0 26 -17.5 44.5t-47.5 18.5q-19 0 -34 -4.5
t-28 -13.5l-18 29q36 27 89 27q47 0 74.5 -26.5t27.5 -69.5q0 -37 -18 -59.5t-41 -33.5q29 -12 50.5 -40.5t21.5 -73.5q0 -52 -35 -90t-87 -38zM533 314l-97 -182h112v184q0 20 0.5 25t2.5 9l-4.5 -10.5t-13.5 -25.5z" />
  </font>
</defs>
</svg>
